<mxfile host="app.diagrams.net" modified="2024-04-16T15:42:44.392Z" agent="Mozilla/5.0 (Windows NT 10.0; Win64; x64) AppleWebKit/537.36 (KHTML, like Gecko) Chrome/123.0.0.0 Safari/537.36 Edg/123.0.0.0" etag="zM_f48Gqv8tFu8a7VF7N" version="24.2.5" type="github">
  <diagram id="a7j7zIiPi6RRU4XR7qmw" name="Page-1">
    <mxGraphModel dx="3349" dy="1183" grid="1" gridSize="10" guides="1" tooltips="1" connect="1" arrows="1" fold="1" page="1" pageScale="1" pageWidth="1169" pageHeight="827" background="none" math="0" shadow="0">
      <root>
        <mxCell id="0" />
        <mxCell id="1" parent="0" />
        <mxCell id="-CGO7wQmBqNUNphRW7Oc-31" value="" style="shape=image;verticalLabelPosition=bottom;labelBackgroundColor=default;verticalAlign=top;aspect=fixed;imageAspect=0;image=data:image/png,iVBORw0KGgoAAAANSUhEUgAAAgAAAAIACAYAAAD0eNT6AAAABHNCSVQICAgIfAhkiAAAAAlwSFlzAAAN1wAADdcBQiibeAAAABl0RVh0U29mdHdhcmUAd3d3Lmlua3NjYXBlLm9yZ5vuPBoAACAASURBVHic7d15/O7lnPjx1/u0kDZhLGWEUhmUnUgh0g8jmVaVzGDshow1MYOy71masVaoZMhgWhSVNULWSiSjLCNp13J6//64PmftfM/5Lvf1+dz3fb2ej8f38T3pfK/3++jc9/t9X9f1ua7ITCRJUlsWDZ2AJEnqnw2AJEkNsgGQJKlBNgCSJDXIBkCSpAbZAEiS1CAbAEmSGmQDIElSg2wAJElqkA2AJEkNsgGQJKlBNgCSJDXIBkCSpAbZAEiS1CAbAEmSGmQDIElSg2wAJElqkA2AJEkNsgGQJKlBNgCSJDXIBkCSpAbZAEiS1CAbAEmSGmQDIElSg2wAJElqkA2AJEkNsgGQJKlBNgCSJDXIBkCSpAbZAEiS1CAbAEmSGmQDIElSg2wAJElqkA2AJEkNsgGQJKlBNgCSJDXIBkCSpAbZAEiS1CAbAEmSGmQDIElSg2wAJElqkA2AJEkNsgGQJKlBNgCSJDXIBkCSpAbZAEiS1CAbAEmSGmQDIElSg2wAJElqkA2AJEkNsgGQJKlBNgCSJDXIBkCSpAbZAEiS1CAbAEmSGmQDIElSg2wAJElqkA2AJEkNsgGQJKlBNgCSJDXIBkCSpAbZAEiS1CAbAEmSGmQDIElSg2wAJElqkA2AJEkNsgGQJKlBNgCSJDXIBkCSpAbZAEiS1CAbAEmSGmQDIElSg2wAJElqkA2AJEkNsgGQJKlBNgCSJDXIBkCSpAbZAEiS1CAbAEmSGmQDIElSg2wAJElqkA2AJEkNsgGQJKlBNgCSJDXIBkCSpAbZAEiS1CAbAEmSGmQDIElSg2wAJElqkA2AJEkNsgGQJKlBNgCSJDXIBkCSpAbZAEiS1CAbAEmSGmQDIElSg2wAJElqkA2AJEkNsgGQJKlBNgCSJDXIBkCSpAbZAEiS1CAbAEmSGmQDIElSg2wAJElqkA2AJEkNsgGQJKlBNgCSJDXIBkCSpAbZAEiS1CAbAEmSGmQDIElSg2wAJElqkA2AJEkNsgGQJKlBNgCSJDXIBkCSpAbZAEiS1CAbAEmSGmQDIElSg2wAJElqkA2AJEkNsgGQJKlBNgCSJDXIBkCSpAbZAEiS1CAbAEmSGmQDIElSg2wAJElqkA2AJEkNsgGQJKlBNgCSJDXIBkCSpAbZAEiS1CAbAEmSGmQDIElSg2wAJElqkA2AJEkNsgGQJKlBNgCSJDXIBkCSpAbZAEiS1KC1h05AK4qIAG4LbAhsMIvv6wM3ANeu4uuaVfxvlwL/m5lX9faHkjS2IuKWLHsvuVX3fVVfK/+7dYGrgauAK2fx/dLMzL7+XFqz8L/HMCJifWDr7mub5X69FeWFVtvlwG+X+/rflf85M6/oIQ9JlUXE7YAtgS2W+77k17fvKY1rgPOB87qvc5f8OjOv7ikHLccGoLKIWBt4EPAAlhX6bYDNgBgwtdn4LfAD4Ifd9x9k5q8HzUjSKkXEhpT3mZUL/BbARgOmtiYJXMyyhuBc4Gzgu5l545CJTTsbgBHrpvC3Ax7dfe1Ima6fFn9huYag+/VPM/OmQbOSGhMRdwB2AB7RfW0HrDVoUqN1JXAGcFr3dY5LCKNlAzACEbENywr+Iylr+C35M3AqcDJwcmb+ZuB8pKkTEXdnWbF/BGW5sCWXAl+jawgy89xh05l8NgDzEBHrAI8H9qQU/TsNm9HYOZeuGQC+5vqeNHcRsSWwK6XY7wBsOmxGY+d3lGbgM8CXM/OGgfOZODYAcxARDwaeBuxDe5/y5+t64BvAScBxmXnhwPlIYysiNgf27r7uP3A6k+RS4BjgyMw8a+hkJoUNwBp0L8j9gQMoG/i0MN8CPklpBv5v6GSkoUXEZpTZxL2Bhw6czjQ4DzgKODozLxo6mXFmA7AKEbERsAfl0/6OjP9u/Ul0I3AKpRk4wXMJ1JJuA98elKK/A77H1JCUTYRHAsf7WPPN2QAsJyLuAbwS2BdYb+B0WnINcAKlGTgxMxcPnI80chFxK8p7y76UzcLTtGN/3F0LfBp4c2b+YuhkxoUNABAR9wZeDeyFL8qh/Ro4HPhwZl4+cC7SgnWf9l8APBf3Dg1tMXAccFhm/mToZIbWdAMQEQ8EDgZ2wym4cXMV8HHgvXbsmkQRcS/gIGA/4BYDp6MVJWXW8dDM/N7QyQylyQYgInYAXgM8buhctEYJfAl4d2aeOnQy0ppExM7Av1LeX/xgMf5OAt6YmV8fOpG+NdUARMRjKYV/x6Fz0bz8GHgncJT7BDROurNB9gFeSjmRT5PnDEojcMrQifSliQag29z3fuCxQ+eikTgfOAT4jEeDakjdTXovAF5Mud9Dk+8U4PktLD1OdQMQEetRNve9DNfgptEPgIMz83+GTkRt6e782Ad4E7D5wOlo9K4D3kbZLHjt0MnUMrUNQEQ8EXgvcLehc1F1ZwKvysxvDJ2Ipl9EPJyyFPXgoXNRdRcCL8rMLw6dSA1T1wB0J/e9h7KzX235EmVG4JyhE9H06S7jeTPl1D615QTgX6btZMGpaQAiYl3KBpzXALcaOB0N5ybgQ8CrPUdAoxARt6Y8LvwiYN2B09FwrgHeCLwjM68fOplRmIoGICIeAfwnntWvZX4PvCQzjxk6EU2miFgbeA7wb3iAj5Y5D3hWZp45dCILNdENQLcR59XAv9PWCX4JXA1c2X1fm3J08a2672sPl9rYORl4Xmb+cuhENDm6df4PA9sMncuYuY7ynnMV5abP9YENu+8tnXmwGHgdZZPgxBbRiW0AIuJvgKOBXYbOZUQS+C2luzy3+34RcAWl0F/Vfb8SuHp1f+m6Ty7rrfS1IXDn7utvu68lv94UWKfGH2pM/BU4FHjrtEzdqY7usb43UE7wWzRwOrX9CbgA+EX39RuWfahYUuRX+PVM5290H8aWNAMbAht03zeiPCWxNaWZ2pryvjMtzcLJwP6TerPpRDYAEbEj5WKHTYfOZZ5+DXyHZYX+XOD8zLx6iGQiYhFwB8oL9T7A/YD7AttSXtTT4lzg2Zl5xtCJaPxExIOATwD3HDqXEbqUUtyXL/QXAL/IzL8MkVBErA9sxbKGYBvgIcBdh8hnBC4B9p3E95WJagC6LvNVwOuZrCn/3wNfBU4FTsvMCwfOZ1a6xmArSjNwv+7rAcBthsxrgRJ4F2WT4HVDJ6PhdRuIX0u5CXSS3ldWlsDPKI/FngmckZm/HTal2YuIuwGPBnYGHgXccdiM5mQx5e/QmyZpSWBiGoBuyv8oJuP8/suA01lW8H82cD4j0zUF96ecqrgL8DAmc2f0j4H9MvPHQyei4UTEdpT74rcdOpd5uJFyGNaZlGNsv56Zlw6b0uhExN+xrCHYCdhk2Ixm5STggElZEpiIBqDb5X8M4z3lfy3weUqTcnIrZ9V3d5zvxLKG4F7DZjQn11E2kb5rkrp2LVy3T+aVlE9tk7T/5WfAf1EK/rcy86qB8+lFRKxFeX85AHgyZV/TuLoE2GcSnhIY+wYgIp5Jea57HKfmkvJJ/0jg+My8cuB8BhcRmwF7Ua5AfcDA6czWacCBkzRdqvmLiHtSXrMPHDqXWbqI8gHo0x5yBRGxIbAH8DTKh49x3FC4GHhOZn546ERWZ6wbgIg4mHLwwrg5l/JJ/+jM/M3QyYyriNiK0gg8Fdhy4HTW5DLguZl57NCJqJ6I2IfyeN+4b279I/AZymbnbzpDtWoRcRdgf8rMwDg+svmazDx06CRmMpYNQLfZ7z3AC4fOZSUnA4dO4m7PoXU7rPejXKByh4HTWZ0jKGd/+7jgFOmm/N8KvGToXFbjCuBzlKL/lVaWEUelezrsYMbv0fD3UY4RHrtiO3YNQHev9pGUQjEOknIO9KGZ+b2hk5l03X/fvSlvxPcfOJ2ZfAvYIzMvGToRLVxE3B44jjJdPI4uAN4BfGKab57rS0Q8kNII7Mb4LA8cAzwtM28YOpHljVUDEBEbUDa4PHboXChrOMdSHuv4ydDJTKOuY38J8CTG79CV31OaAG8YnGAR8RDgeMrhM+PmLMqVs/+VmTcNncy0iYh7Ux4b35vx2EN2CvCUcdq4OTYNQETcDvgy8KCBU7meMgPxlsy8YOBcmhARW1AuWvknygli4+IGytTdB4dORHMXEf9MmX4dt8dUvwy8LTO/NnQiLYiILYFXUDYNDv134bvA4zPzTwPnAYxJA9Bd4Xsy5dCZIZ0CvCAzzx84jyZFxMaUGYGXMl6NwMcoGwQ9OGgCRMQtgPcDzxg6l+XcQFnbf5szisPoNiUfzvAzzOcDu4zD1cKDNwBdd3Y6wz7jfwnl5rjjBsxBne7Qp9dQbmIbumNf4rvAbpn5u6ET0cy6XeGfZXwe8VtM2Vj6Jh8zHQ8RsRflNNCha85OQ88yD9oARMQdgW8CdxsohRspU4Sv8xn+8RMRd6Uc+7wf47FH4ELgsd4sOJ4i4v7A/wC3HzqXzimUDxY/HToRrag7S+DfKU+aDXV76oXAwzLz9wPFH64B6KZ7Twe2GySB0ng8NzN/NFB8zVJE3Ac4DHji0LkAfwAe54Es4yUidqY8Qrfh0LlQLtx5aWb+99CJaPUiYlvgg5QjzYdwDmUm4PIhgg/yqaq7cvMEhin+V1DWBnew+E+GzPxxZv495fneoTdm3gE4PSJ2GDgPdSJib8rGuqGL/+WU/Sv3svhPhq4G7ECpCVcMkMJ2wAldTexd7zMA3ZnOnwF27zVw8QNgr6HXXTR/3QavV1N29d5iwFSuBfbMzC8NmEPzIuKFwLsZdoloMeV0wUMm5RIY3Vy3H+04yq2nffsc5f2k18OfhnjRfJBhiv8HgO0t/pMtM6/LzNdRbm87dcBU1gM+HxH7D5hD0yLiUOC9DFv8vwHcPzOfY/GfbF1t2J5SK/q2O6U29qrXF05EvAF4Vp8xKdM6e2Xm832Ma3pk5vmZ+RjKOeB/GCiNtYEjI+JFA8VvUkSsFREfpswEDeV6yiEzO7qUOD26DxjPp1xo1veSwLO6Gtmb3pYAIuIFlB33ffo+pfi7a3uKRcQmwEcYZmZpiTdk5msHjN+EiFiPcqzqkwZM48eUO9/dCDrFugPKjqP/I8tfmJmH9xGolxmAiHgy5XKfPr2f8oiFxX/KZeZlmfkUyiFCQ521fUhEvD8ixuFxxanUNXqnMFzxvwl4O/Agi//062rHwyi1pE/v6WpmddVnACLi7pRP4htXDbTMTZTb3Pr+j6Yx0J39fiyw+UApjOWlH5MuIm5N2fMx1AVSvwYO9CbQNkXE8+l3v8nllL0lv6oZpOofJiLWpbwZ91X8rwf2tfi3KzO/Q9nFO9RjWPsAX4iIWw0Uf+p0Z4aczHDF/6PAthb/dnU1ZV9KjenDxsCxXQ2tpnY383b6O5LzSsolCx7n27jMvIxyFejLKac99m1X4CvdlLUWICI2Ak5imEvCLgd2z8xneFKoutryeEqt6cMDKTW0mmpLABHxD5RrOPvwR+D/Zeb3e4qnCRERD6dMyw9xHexPgMdk5lBPKUy07nrwkxjmlLafA0/2YjCtbIAjp/fIzM/WGLhKA9Dzuv+FlJuVfL5fq9RdNX0U5ZN5334IPHKooz4nVUSsT3mTfcQA4U+g7PL3U79WqTs06GT6ucem2n6AkS8BdGsWx9FP8f8RZae/xV8z6u7efjxwMOXUtj7dl7InYJCjPidRt3/iS/Rf/BP4N8q0v8VfM+pqzsMoNai2jYHjauwHqLEH4B3AAyqMu7LzKdOrg92kpMmRxWHAzkDfV/ruSNnQs1bPcSdO95z/fwM79Rz6SsqU/7/n0HekayJ0tecxlFpU2wMotXWkRroEEBF7UM75r+0S4OGZ+eseYmnKRMTtKfsCHtVz6I8D/2SBWbVuluQLwGN7Dn0+sFtmnttzXE2B7trybwCb9hBuz8wc2d66kTUAEfE3wHlA7Z3Pf6Ecv/njynE0xbrptE8Ce/Qc+h2Z+a89xxx7EbE28HngCT2H/hKwn3s0tBDdleVnALeuHOoyYOtR3TsxyiWAt1C/+P8VeJLFXwuVmddTntn/aM+hXxoRr+g55iT4T/ov/v9BeT+x+GtBupr0JEqNqmkTSq0diZHMAETEw4CvA7HgwWa2GPiHzDyhYgw1KCLeARzUc9hnZeaHe445lrpb/fq+2OdNmTnkZUKaQhGxG/BZoOZ+nwR2yMxvLnSgBTcA3cams4HtFprMGjwzMz9SOYYaFRGvAfq8iWsxZT3vcz3GHDvdEau9XHzSSeBfM/OdPcZUQyLiGUDt5v4c4AGZuaCnmkaxBPB86hf/11v8VVNmvhF4IaVA9GEt4NMR0fdGxLHRHRb23h5DLgb+0eKvmrpa9frKYbaj1N4FWdAMQETcgbLxr+Yz/18BHpeZN1WMIQEQEfsDHwPW7inklcCjMvPsnuKNhYjYkXKQyi16CvlXYB+XENWH7lbQkyiPCdZyOWVD4LxPGl3oDMDbqVv8fw/sb/FXXzLzaOAfgOt6Crkh8D8RsVVP8QYXEfemnLbXV/G/AtjV4q++dDVrf0oNq2VjFnhXwLxnALoO/vSFBF+DmygH/Xy1Ygxplbqp+S8AG/QU8iLK2RYX9xRvEBHxt8C3gM16Cuk9IRpM9z7yFepevLfTfG+qnFdS3TO7H5jPz87B6y3+Gkr3d29n4M89hdwcOLm7+nYqdbcjnkh/xf//KPcwWPw1iO59pPZ+gA90NXnO5tuVPBe41zx/djZOpd8d2dLNZOZZlGN8L+kp5N9RNgbWvqa7dxGxDvA5yp+xD3+mzCD+vKd40kzeQKlptdyLUpPnbM5LAN0Jar+iXhf/e+C+XqGqcRERd6Oc8tXXlcJvy8yX9xSrFxHxIeDZPYW7HNi5tY2VGl/dhvkfAnesFOJi4O7dAWezNp9PGk+n7hTe0yz+GieZeSGwC/0tB7ysexphKnTP+vdV/K+irPlb/DU2upr2tIohNqPU5jmZ0wxAt85wHnD3uQaapU9m5tS88Wm6RMRDKFN56/cQ7q+UOy++20OsaiLi0ZTHofp4rPIa4PGZWXNzsjRvEXE0sF+l4X9FeSzwxtn+wFxnAPalXvG/AvCSFI2tzPwO5fKgG3oId0vg8xFxpx5iVRERW1BuB+2j+F9Huc7X4q9x9q+UWlfD3Sk1etZm3QB0G5NeNdeM5uCQ7n5laWxl5omUqbY+TgzcFPhcRPT1vPzIRMSGlMcob9NDuBso94Sc0kMsad66GndIxRCvmssm4rnMADwFuOfc85mVHwLvrzS2NFKZ+SngxT2FewhwRE+xRqJ7A/oU/ez4v4lywt+XeogljcL7KTWvhntSavWszKUBOHjuucxKAs9b6KUGUp8y873AoT2FOzAi+r6tcCEOA57YU6yDMvO/eoolLVhX655HvVnEWdfqWTUAEfEE4L7zTmf1PpqZ36o0tlRNZr6Gco99H94aEbv0FGveImI/4BU9hftAZr6np1jSyHQ176OVhr9vV7PXaFZPAUTEt4CHLjSrVfgzsFVmXlphbKm67jrs45jDtNsC/AV4cGb+oodYcxYR9wO+SdnAWNtJwBOcOdSkiojbAudTZ5/MtzNz+zX9pjXOAETE9tQp/gBvtPhrknUF6KnA13oId2vgCxGxUQ+x5qQ7wvgz9FP8fwrsZfHXJOtq3xsrDf/Qrnav1myWAJ6+8FxW6U9M2OYmaVUy8zpgN+AHPYTbhvE8LvgjwBY9xPkj8MTMrPUoldSnIyi1sIanr+k3rPZNJCJuCew1qmxW8q7MvKbS2FKvuoL0/4ALegj3eOpfMDJrEfEiyhXKtf0V2C0zf91DLKm6rga+q9Lwe3U1fEar3QMQEXsBx446K8pZ3Ztn5uUVxpYGExFbAmcBm1QOdT1wj8z8TeU4qxURDwbOBNatHCqBfTOzxvuRNJhu+ewioMZNoHtn5nEz/cs1TSMeOOJklnifxV/TKDMvAPYGaq9Prwu8unKM1equ9z2O+sUf4HUWf02jrha+r9Lwq63hM84AdLcXXQysNeKErqZ8+nfzn6ZWRLwEeGflMIPNAkREACcAf99DuKMz84Ae4kiD6J4IuIjR3zOyGNhspgv2VjcDsB+jL/4AH7L4a9pl5ruAT1QOsy71ZunW5KX0U/y/DjyzhzjSYLqa+KEKQ6/Fai4fWl0DUOON5a/AOyqMK42jZwPfqRzj9pXHv5mIeBjwph5C/RLYvXvKQpp276DUyFGbsZavsgGIiO2AbSskckxm/q7CuNLY6QrX7sAlFcPcuuLYNxMRt6NsDK59w99fKI/71XpEShorXW08psLQ23Y1/WZmmgGoNa14ZKVxpbHUvah3p1xXW0NvDUC37n8UcOfKoW4E9sjMcyvHkcZNrRq5ypp+swage5E/tUICF9HPaWnSWMnMs4B/rjT8VZXGXZVXAbv2EOe5mXlqD3GkcfM1Sq0ctad2tX0Fq5oB2Ba4Q4UEjs7ZXDwgTaHMPJI6TwV8vsKYNxMRO9HP4UNvz8wP9xBHGjtdjTy6wtB3YBXL+qtqAB5dITg4/S+9HDh5hOP9FfjSCMdbpYi4PfBp6jwVtLzP099NgtK4qlUrb1bb+2oAvp2Z51cYV5oY3eU1ewOjus3vxMysugTQ3TnwKeBONeMAPwH2z8ybKseRxlpXK79dYejVNwDd1aY7Vghc+3loaSJk5l8oFwct9DKby+jn0/JrgZ0rx7iacrvf1ZXjSJOiRs3csavxS608A/BAYNRXjV5HnfsEpImUmT8Hnky5E2M+bgCeUntWLSIeAxxSM0bnud3/J5KKYxn9k0MbUWr8Uis3ADWm/7+UmZdVGFeaWJn5VWB74MJ5/PhzMvNro81oRRFxJ+CTzO7K8IX4aGYeVTmGNFG6mlljf88KNX7lF/ejKgQ8qcKY0sTrPvU+hHLc7WycCTwmMz9aL6ulS4Gfpv4pgz8BXlA5hjSpatTOFWr80suAImJdyulb64044JaZ+csRjylNlYi4H7BH97VV9z/fSFkm+CFwaDdr0EcubwQOrhzmauCBHvYjrVpEbAFcMOJhrwVunZnXw4oNwI7A6SMO9pvM3HzEY0pTrbuJ85rMvHKA2I+gHEZSe+r/aU79S6sXERcBdxnxsDtl5hmw4ou8xvr/aRXGlKZaZv5hoOK/MeWoX9f9pfFQo4YurfXLv9B3qBDI4zylyfF+oPaMnev+0uzVqKFLa/3yDcA2FQI5AyBNgIh4Kqu5N3xErgb2zMxrK8eRpkWNGrq01kdmEhEbAKOecjwvM2s0FZJGKCLuAvwI2LhyqAMys8Y559LUiohzga1HPOyGmXnVkhmArVb7W+fHT//SmOuO+j2K+sX/IxZ/aV5q1NKtYNkSQI0G4IwKY0oarVdQ5/jv5f0EeGHlGNK0qlFLV2gARj29AODRntIYi4gHAP9eOYzr/tLC1KilW0O9BiAZ3Y1nkkYsIm5FOep3ncqhnuNhP9KC/IJSU0epagPw28y8ZsRjShqdd1Jn5m95rvtLC9TV0t+OeNgVGoBR7wE4b8TjSRqRiHgS8OzKYX6M6/7SqIy6ppY9ABGxKbDBiAevek2ppPmJiDsCH64c5ipgL9f9pZEZdU3dICI2XUSdaUBnAKTx9DHgbyrHeIHr/tJI1aipWy8CtqgwsDMA0piJiBcCu1YO85nM/ETlGFJratTULRYBm1QY2AZAGiMRcS/grZXDXEz9vQVSi2rU1E0WARuOeNAbgF+PeExJ8xQR61Ie+btlxTAJHJiZl1WMIbXq15TaOkob1mgALs/Mm0Y8pqT5OwzYrnKMd2amt39KFXQ19fIRD1ulAej9HnNJqxYROwMHVQ7zI+DgyjGk1o26tm64CNhoxINeMeLxJM1DRNwG+AQQFcP8FXhqZl5XMYak0dfWjWrMANgASOPhCGCzyjFekZk/rRxD0uhrq0sA0jSKiKcDe1QOczLwvsoxJBVVlgCcAZCmSETcHXhv5TCXAk/PzFFfUiJp1ZwBkDSziFgLOJrRv65X9qzM/F3lGJKWcROgpNU6GNi+coyPZObnKseQtCI3AUpatYh4CHBI5TAXAC+uHEPSzVVZApA04SJiA8rU/9oVw9wI7J+ZV1WMIaknixj9usKolxQkrdm7gS0rx3hDZn6ncgxJqzbq2nrlIiqsK4x4PEmrERG7A8+oHOZbwKGVY0ia2cj369WYAai9+1hSJyLuBPxn5TBXUqb+F1eOI2lmI39izyUAaUJFRAAfB25bOdSLMvNXlWNIWr0qSwDOAEiT6YXALpVjHJ+ZH68cQ9KaOQMgCSLiXsBbKoe5GHh25RiSZsdNgFLrIuIWwKeAW1YMk8CBmfnnijEkzZ6bACVxKLBt5RjvzMxTK8eQNHsTsQSwcUR4wJBUQUTsDBxUOcw5wKsrx5A0S11N3XjEw1ZpANYB7jriMaXmRcQmwCeAqBjmr8B+mXl9xRiS5uaulNo6SlcuAi4b8aAAW1UYU2rdEcBmlWO8PDN/WjmGpLmpUVMvWwT8ssLANgDSCEXEgcCelcOcmJnvqxxD0tzVqKm/XAScV2HgrSuMKTUpIrYBDq8c5v+Af6wcQ9L81Kip5y3KzEuAUd/u5QyANAIRsR5wHLBB5VDPzMzfV44haX5GXVOvysxLluzWP3/EgzsDII3G+4D7VI5xRGZ+oXIMSfM36pp6PpTrgGH0ywB3johbjXhMqSkRsT/1b/k7j/qPFUqap66W3nnEw54H9RqAAO4x4jGlZnTr/h+qHOYGyiN/11SOI2n+7sHoH/2t2gAA3LPCmNLU69b9PwOsXznU6zLz7MoxJC1MjVq6QgMw6j0AADtWGFNqwfuAe1eOcQb1LxOStHA1aun5AJGZRMQGjP5EwPMyc5sRjylNtW7d/6jKYS4Hts3M31SOI2mBIuJcRr8JcMPMvGoRQGZeRbn6c5S2johNRzymNLV6WvcHeJ7FXxp/XQ0ddfG/uKv5LH9pz7kjDgLw6ApjSlOnx3X/T2bmXC6wmAAAGu5JREFUpyrHkDQaNWro0lq/fAPw9QqBdq4wpjSNDqf+uv9FwPMrx5A0OjVq6NJav3wDcFqFQM4ASGsQEQcA/1Q5zE3AAZl5eeU4K4iIRRFx24i4S59xpSlRo4YurfXLNwDfBq4dcaC7RMQWIx5Tmhrduv8Hewj1psw8s4c4RMRjIuKrEfFn4EbgT8BFEXFBRLw5Iu7fRx7SJOtq56gb52sptR5YrgHo7v92GUDqSY/r/qcDr6scg4jYOSLOBE4BHglswooHmGwBvAI4OyLOjIi/qZ2TNMGqTP93tR5YcQYA4KsVAj6uwpjSNOhj3f+PwL6ZubhmkIj4J+ArwA6z/JEdgO9EhAeGSatWo3auUONXbgBq7AN4QkRsUmFcaWL1uO6/X2b+rmaQiHgk83t88W7AtyLiUaPNSJpsXc18QoWhV6jxKzcA3wOuGHHAWwB7j3hMaWJ1n3r7WPd/Q2Z+pWaAiNgK+C9gnXkOsTHweWcCpBXsTamdo3QFpcYvtUID0E0TnjHioAAHVhhTmjgRsT5wHPXX/U8FXl85BpTjhBc6w7cRcEJE3HoE+UjToEbNPGPlpcCVZwCgzjLAQ7tPClKzImIRcDT11/1/Bzw1M2+qGaQ7QnzXEQ13D+DYiFhrRONJE6mrlQ+tMPTNantfDQDA0yqNK02KtwBPrhxjMWXT3x8rx4GyRnnLEY63C/DWEY4nTaJatXJWDcCPgD9UCL5/RIz6TmNpIkTEM4F/7SHUazPz9B7iQJ1m5qCI8MOCmtTVyP0rDP0HSm1fwc0agMxMoMZZ4ZtTng2WmhIRO9PPpr8TgTf1EGeJDSqN+x8R8eBKY0vj7JGUWjlqn+pq+wpWNQMA8IkKCYDLAGpMd9Lf8cDalUP9lnLU781e5BX9pdK4twA+FxF3qjS+NK5q1chV1vRVNgCZeQ6rmC4YgX18UasVEXE74ItA7d3tNwJ7Z+afKsdZWa0GAGBTShMw6kehpLHU1cZ9Kgz9o66m38xMMwBQZxbglsBLK4wrjZWIWBf4HOX429pelZnf7CHOympvNHwIcETlGNK4eCmj3VS7xIy1PGaaMYyIOwAXA6N+LOdqYPPMvHTE40pjIyKOos5mnpX9N7Bbz1P/AHQ3/P0CWLdyqIMy812VY0iDiYjbUq7rHvX5IIuBzTJzlRv7Z5wB6H7gpBEnA+UP+OIK40pjISIOoZ/ifxFw4BDFHyAzfwN8rIdQb4uIx/YQRxrKi6lzONhJMxV/WM0MAEBE7AUcWyGpyymzAL3eTS7VFhF7A59mxVvwargeeERmnlU5zmr1OAtwGfDgzLygchypVxGxMaWZ37jC8Htn5nEz/cvV7QEA+AJ1NvpsDDy/wrjSYCLiocDHqV/8AV42dPGHpbMAb+sh1CbA/3RLk9I0eT51iv9fKDV8RqttADLzr5Rzy2t4SUTcqtLYUq8i4q7ACdTZxLOyz2bme3uIM1uvBb7cQ5wtKU3ARj3EkqrrauBLKg1/XFfDZ7SmGQAon2hquB3w7EpjS73pCtIXgdv3EO6XwDN6iDNr3Z0D+wLn9hDufpSLg3w8UNPg2ZRaWMPH1/QbVrsHYOlvivgWdS4n+DOwlU8EaFJ1l9d8CXhcD+H+CjwsM3/QQ6w5i4h7AGdR/9wDKFcQ77Xy7WbSpOh2/p8P3KbC8N/OzO3X9JtmMwMA8MYFJjOT21AuSJEm1Xvpp/gDPHNciz9AZv6Cco95H0X5KfRzvLJUy1uoU/xhljV7VjMAABHxA+C+C8loBgk8PDO/VWFsqZqI+Bfg3T2Fe0tmvrKnWAsSEQcB7+gp3KGZ+ZqeYkkjERHbA9+gzobhH2bm/WaVxxwagD2Azywkq9X4IfBAp/M0KSLiKZTXw2xn0Rbii5TDfm7qIdZIRMTHgQN7CvcvY7YpUppRt2z4Pep8oAbYMzOPn1Uuc2gAFgE/Ae65gMRWxxexJkJEPIFyzO86PYT7GfDQzLyyh1gj023SO51ynG9tCeyfmTVuMZVGKiJeBLyn0vA/B+492w8Ls24AACLiAODIeSa2JlcAW2fm7yuNLy1YdyLdf1NurKvtz5TDb37ZQ6yR6y43+R7lYp/abgCelJkn9hBLmpeIuCNwHlDrUdanZeZRs/3Nc52+/DTwqzn+zGxtBLy90tjSgkXETsDn6af430iZypvI4g+Qmb8Dnkx5eqG2dYDjI6KPGQdpvt5OveL/K0qNnrU5NQCZeSN1d+3v55nfGkfdpp0vAn0dXvXizDytp1jVZOZ3gWf1FG594MsRUWuZUpq3rrbtVzHEW7oaPWtzWgKApdec/grYbE4/OHu/B+67ugsMpD5FxAOAU6lzXOeqHJGZz+kpVi8i4q3Ay3oK91tgx8y8sKd40mp1R1j/ELhjpRAXA3fPzOvn8kNz3sHcBag5C3BH4JPdpkNpUBGxLXAy/RX/04EX9hSrT68E/qenWHcGvh4R9+opnjSjrpZ9knrFH8qn/zkVf5j/I0wfBH46z5+djZ2BQyqOL61RN5X8Feod1rGynwG7Z+YNPcXrzXLHBf+sp5CbAmdExIN7iifN5BBKTavlp8zzUKw5LwEs/cGIHSmfVmq5CXhMZn61YgxplSLi/pRPrH2c7w9lCm/7zPzfnuINIiI2oxyAsnlPIa+iPB3g+4h6FxGPonyIqDmjvVNmnjGfH5x3Ul3Ao+f787OwCPiU13+qb91u/6/SX/H/C7DrtBd/gMy8GNgF+L+eQm5AuUHwST3Fk4Cl6/6fom7xP3q+xR8WMAMAS/+A51F3ffQrwOMm6RQ0Ta6I2A04hn6u9QW4DthlIS/iSdRtrPwqsGFPIW8E/jEza35okYCl6/4nAY+pGOZyytk5894wv6DOpAv82oWMMQuPAV5XOYZERBwIfJb+iv9NwH6tFX+AzDwb2I3SAPVhbeDIiHhBT/HUttdRt/gDvHahT8staAYAlp5rfDaw3YIGWrNnZuZHKsdQo7oLbN5Oncs5ZvKCzHx/j/HGTkTsTrlTYa0ewx6SmbVuOFXjIuIZwIcrhzkHeMBC789Z8NpEl8DzKOdx13RENz0rjVREHEa5va7P4n9Y68UfIDM/B/R95sEbIqKv2wrVkK5GHVE5TALPG8XleSPZnJCZ3wQ+PoqxVmMt4JiIeETlOGpERCyKiCOAV/Uc+uOZeXDPMcdWZn6Yck5Anw6KiI90M5jSgnW16Rjqz2Z9vKu5C7bgJYClA0X8DWVD4CYjGXBmf6Gc8vXjynE0xSJiY8rhHE/oOfSXgCfP9cjOFkTE24GX9hz2eMo+jDkfoiItERH3Ac4Abl051GWUjX8jeYpmZI8ndAn986jGW41bAydGxF17iKUpFBHbAGfRf/E/BdjD4j+jl1F/JnFle1DeT/p65FNTpqtFJ1K/+AP886iKP4z4+cTMPB44fJRjzmBT4KRu1kGate558LOArXoOfRqwW2b2cTPeRMoyHflM4As9h34U8MPu/Adp1roadBL9XHl9eFdjR2ZkSwBLByyXBX0TeMBIB161H1HOCPh9D7E0wSIiKI+svo5+N/tBOTHz8Zl5Tc9xJ1JE3JLyprpjz6EXU/6OvClH/caoqRMRd6T8Pd22h3BnAw8b9VLVyBsAgIi4O/B9+rlA5ULKQSoX9BBLEygiNgSOojx33rczgf+XmVcPEHtidXs0vgbcd4DwJwIHZOafBoitCRARW1IuCbtbD+EuB+6fmb8a9cBVjijsEn1GjbFX4W7AN7qz26UVRMRWwHcYpvh/k/LJ3+I/R5l5ObAr8JMBwu8K/CAiHj5AbI25rtZ8g36KP8AzahR/qHhGcWZ+FnhfrfFXcnvgaxFR88YlTZiIeDJlvf+eA4T/DuWT/1UDxJ4K3SlnOwLfGiD8nSnvKS/rlo8kuhrzNfq7J+R9XS2tosoSwNLBy36AbwAPrBZkRddTpu6O6ymexlA35f9u4J8GSuG7wGO7T7FaoIi4FeWI5l0HSuG/gQMz87KB4msMRMRelKXEdXsK+T3g4TUfUa15SxFd4ntT1jD6sC7w6Yh4fk/xNGa6a6p/xHDF//uUPSkW/xHpNk8+iXLIyhD+nrIk8JCB4mtgXU35NP0V/8uBvWufT1G1AYCl+wGeTrn4pA+LgMMj4vCIuEVPMTWwiLhFRLyNcsPcXQdK4xvAYzLzLwPFn1qZeQOwH/CBgVLYHDgzIl48UHwNoHtfOZzyeHv1etm5CXh6rXX/5VVdAlghULmFq689AUt8H9grM3/Zc1z1KCK2o0zN3WfANL4A7JOZ1w6YQxMi4vXAIQOm8DnKxiyXBKZYRGwBHAf0vcH8hZnZx3k6vXU0dH+gvm/guj/w/YjYs+e46kF3lv8rKRv9hiz+HwGeYvHvR2a+FvgX6l9ANpPdgZ9HxH4DxVdlXc34Pv0X/zf2VfyhxxmApQEj/gN4Vq9Biw8AB2VmX/ePq6KI2Jby33ToR7UO82KfYUTE/sDHgLUHTONUys1s5w+Yg0akWzZ+J+WG2779Z2b2cZz+UkM0AGtR7v/evdfAxQ8oSwIeGjShuqM330A5MnbIm9xuAl6cmX0va2k5EfEEyvvJegOmcR3wFkoz6AeMCdUd7nMccL8Bwn8O2HMUV/zORe8NACw96vNEYIizt68AXgJ8zOM+J0dErAO8kHJUax8nTK7O9cDTMvPYgfMQEBE7AF9k+L8XF1BmA04ZOA/NQXfOwz8C7wI2GiCF04Fdh7gnZJAGAJYe9Xk6sN0gCZRT2p6bmT8aKL5mKSL+HngHcI+hcwGuBHbPzFOHTkTLdBtBTwLuMHQulGbk1V5ZPv66pcQPAg8bKIVzgJ2Gemy4t02AK1vuqM8LB0rhYcDZEfHO7uAYjZmIuFdEnEzZYT8Oxf+PwCMt/uMnM8+h7AcZ6v1keU+k3C54pNeWj6eI2DAi3kl3yc5AaVxI+eQ/2Jkhg80ALE2grLucTj/XKc7kEuAlniA4HiLizsCrgGcz7Dr/8r4H/ENm/mboRDSziLgTcALwoKFz6VwPfIiyu3tk97hr/roT/d7F8DVnp6H3ow3eAABExOaUm5X6vqN9ZacAL3BH7zAi4t7Ay4B9gXUGTmd5HwGe7wavydDt5P4gZV13XFxFWcZ6l6dEDqO7GOxw4LEDp3I+5bTQiwbOYzwaAICIuB3wZYbv3K8HjgTeMnR31oqIeCSl8D9+4FRWdj3lUI7/GDoRzV1EPBd4D+PVTF4FfBR4rweU9aObZX4F8DT6O8p3Jt+l3BA6FldNj00DABARGwD/xfAdGsBi4FjgTZk5xJWkUy0iFgFPoRT+Bw+czqr8FtgjM78zdCKav+5K3+OBOw6dy0puouxteVdmnjF0MtOom1F8FeU+mnFYSjyFcmDY2NwQOlYNACx93OtIYJ+hc+kkZU3x0Mz83tDJTLqIWA84EHgpsOXA6czkdMp5EX8cOhEtXERsSmkCth86lxl8n7ImfWx354EWICIeCBwM7AaMy1XOx1AeHR6r/75j1wDA0ucy30N57nucnExpBOzY56A7/OkxlLX93RnmWdvZehfw8sy8cehENDrd1eTvpWwsHVd/oBSKT2XmWUMnM2m6m0APBnYZOpeVvA/4l3E8d2YsG4AlIuJg+r8/YDbOpVw+c7S7wleta+IeRin6ewK3HzajNboaeGZmDnXlrHoQEXtTNghuMnQua3AB8Cngk25KnllE3AXYHzgA2GbgdFblNZl56NBJzGSsGwCAiHgm5TGacVjDWVlSpouPBI7PzCsHzmdw3YEs+1KWcDYfOJ3Z+h5leu7nQyei+rrHTD8BPHroXGbpbOCTwHGZefHQyQytO7dlD8qmvp0Yn2n+5S0GnpOZHx46kdUZ+wYAICIeQZkaG/K5zTW5Fvg8ZWbg5L7PdB5Kt3Fze2BHyqa+vxs2ozm5AXg98Gan/NvSzVC9BDgMuMXA6czFTylLkacAp2fmNQPn04tuGXEXyif9JzPs3Q9rcgnlavAzh05kTSaiAYCll8AcBTxu6Fxm4TLKzMCpwGmZ+bOB8xmZiLgtsAOl4D+CcnHGkLexzdePKJ/6zxk6EQ0nIu5D+XQ95HXS83U95UjzJQ3B9zPzpmFTGp2I+DvKLM3OlE/6475sA+U46gMm5dCniWkAYGnX/irKp7ZxXBKYye+Br7KsIRiH40pnpZsuXVLsH0H5hD+OU26ztRh4M/D6zLx+6GQ0vO7goMMoMwKT/Hf7z5Tlgh90Xz8Ezp+UpiAi7saygv8oxu/RzdVZTLmo7E3juNlvJhPVACzR7fb8NOO9JLA6vwa+Q9lMeF73/fzMvHqIZCLi1pSz9rfsvi//69sOkVMlPwcOzMzvDp2Ixk/3vnIE47mZbL6upsx2/ZDSFPwYuAj4w1CNQUSsTzn1dRtg6+77Q4C7DpHPCFwC7DuJT4dNZAMAS5cEjmb8HvmYr6QcPrOkITiP8kK9gnID3VXd9yuBq2fqMru1svWBDbrvK/96Q+AurFjob1frDzUmbgLeCRwyxJWbmhzd44IvpzxOdsuB06npBkrh+l/K+87/Lvfr31LeZ65d/mt1+2S62dkl7y8bUt5zNqQ88rs5ywr91sCdmeyZluWdDOw/KVP+K5vYBgCW/qV7NfDvTNaSwEIlpbO/svu+LsuK/CRtaOrDuZTH+74xdCKaHBGxBfABpucDxijcSGkGrum+38iyor8+01PUZ2Mx8DrgsEma8l/ZRDcAS3RPCfwnpbuUAC4F/g34kDv8NV8RsQ/lcKhJWo9WXecBz5qEXf5rsmjoBEah+w+xLWU2oInHYjSj64G3A1tm5uEWfy1EdzDUNpTZgInYTKdqrqHUmG2nofjDlMwALK+7Wvg9lHOg1ZbPAK/MzF8NnYimT3fI1aHAE4bORb07gXKc7+BX+I7S1DUAS0TEEylnf99t6FxU3VnAQa7zqw/dDYNvojwWq+l2IfCizPzi0InUMBVLAKvS/Qe7F+UugesGTkd1XAQ8FXioxV99ycxvZOaOwOMpj9Zp+lxHqR33mtbiD1M8A7C8iLgH8H7gsUPnopG4GHg3cLiP9WlI3ZNIewJvoDzbrsl3CvD8zPzF0InU1kQDsEREPBZ4DeVkO02ec4B3AMeM273aalt3/sYBwEFM5rHCgjOAN2bmKUMn0pemGoAlImIHSiMwCfcKtC4p52u/PTNPHToZaU0iYmfgxZTNgi09Gz+pTqIU/q8PnUjfmmwAloiIB1JO/NoNX6jj5jrKJS3vzMyfDp2MNFfd0uOLgKdTDurS+EjKzv5DM/N7QyczlKYbgCUi4t6U5zv3oq0TBcfRpcAHKev7fxg6GWmhImJj4JnAC5jc8+6nxWLgOMoJfj8ZOpmh2QAsp+vYXwnsy3jfNz1tFgNfo1zw9OlW7jhXW7p9ArsC+1FmHW81bEZNuZby/vLmFjb3zZYNwCpExEbAHsDTKBsGXR4YvQS+DhwLHO+nfbUkIjagNAH7UZ5OWnvYjKZSUjb2HUl5j7li4HzGjg3AGnQnC+5P2eHrXQML921K0f9MZl48dDLS0LqbTfeiNAPbD5zONDgPOAo4etpO7hs1G4A5iIgHU2YF9gFuO3A6k+T7lKJ/rC9IaWYRcTdKM/A44OGUmz61ZpcCxwBHZuZZQyczKWwA5iEi1qGcArYn8GjgTsNmNHYuoUzvnwmcmJkXDJyPNHEiYn3gkZQriXehXEqkZX4HnEa5A+TLng0ydzYAIxAR21AagUdTXrCtzQ6cTyn2ZwJnehmPNHoRcReWNQM7A7cZNqPeXUrZLHwacFpmnjtsOpPPBmDEuqNBt2NZQ7AjsOGgSY3WYsqJfEsK/tfdwCf1KyIWUe46uS9wv+7rvsCth8xrxK6kbOI7rfs6Jy1YI2UDUFlErA08CHgAZQpv6+77Zoz30wVXAL8ELui+L/n12Zl55ZCJSVq1iLgrKzYE9wPuPGBKs5GU+z3OpWzgOxc4G/huZt44ZGLTzgZgIN363tYsawiW/Hor+ns++I/cvMD/ErggM//UUw6SKuoea/5bSiOw5Gvlf964h1SuoSwXnseyQn8ecF5mXt1DfK3EBmDMdEsIt6UsG2wwi+/rA9cDVy/3dc1K/7yqf3eVN+lJgqXnEvwt5b1nvZW+brWK/209YB269xLKdP2avl/qFP54sQGQJKlBi4ZOQJIk9c8GQJKkBtkASJLUIBsASZIaZAMgSVKDbAAkSWqQDYAkSQ2yAZAkqUE2AJIkNcgGQJKkBtkASJLUIBsASZIaZAMgSVKDbAAkSWqQDYAkSQ2yAZAkqUE2AJIkNcgGQJKkBtkASJLUIBsASZIaZAMgSVKDbAAkSWqQDYAkSQ2yAZAkqUE2AJIkNcgGQJKkBtkASJLUIBsASZIaZAMgSVKDbAAkSWqQDYAkSQ2yAZAkqUE2AJIkNcgGQJKkBtkASJLUIBsASZIaZAMgSVKDbAAkSWqQDYAkSQ2yAZAkqUE2AJIkNcgGQJKkBtkASJLUIBsASZIaZAMgSVKDbAAkSWqQDYAkSQ2yAZAkqUE2AJIkNcgGQJKkBtkASJLUIBsASZIaZAMgSVKDbAAkSWqQDYAkSQ2yAZAkqUE2AJIkNcgGQJKkBtkASJLUIBsASZIaZAMgSVKDbAAkSWqQDYAkSQ2yAZAkqUE2AJIkNcgGQJKkBtkASJLUIBsASZIaZAMgSVKDbAAkSWqQDYAkSQ2yAZAkqUE2AJIkNcgGQJKkBtkASJLUIBsASZIaZAMgSVKDbAAkSWqQDYAkSQ2yAZAkqUE2AJIkNcgGQJKkBtkASJLUIBsASZIaZAMgSVKDbAAkSWqQDYAkSQ2yAZAkqUE2AJIkNcgGQJKkBtkASJLUIBsASZIaZAMgSVKDbAAkSWqQDYAkSQ2yAZAkqUE2AJIkNcgGQJKkBtkASJLUIBsASZIaZAMgSVKDbAAkSWqQDYAkSQ2yAZAkqUE2AJIkNcgGQJKkBtkASJLUIBsASZIaZAMgSVKDbAAkSWqQDYAkSQ2yAZAkqUE2AJIkNcgGQJKkBtkASJLUIBsASZIaZAMgSVKDbAAkSWqQDYAkSQ2yAZAkqUE2AJIkNcgGQJKkBtkASJLUIBsASZIaZAMgSVKDbAAkSWqQDYAkSQ2yAZAkqUE2AJIkNcgGQJKkBtkASJLUIBsASZIaZAMgSVKDbAAkSWqQDYAkSQ2yAZAkqUE2AJIkNcgGQJKkBtkASJLUIBsASZIaZAMgSVKDbAAkSWrQ/wdPHCC97PJt+AAAAABJRU5ErkJggg==;fontColor=#616161;container=0;movable=1;resizable=1;rotatable=1;deletable=1;editable=1;locked=0;connectable=1;" parent="1" vertex="1">
          <mxGeometry x="-933" y="65" width="696.75" height="696.75" as="geometry" />
        </mxCell>
        <mxCell id="-CGO7wQmBqNUNphRW7Oc-4" value="Experimentation" style="text;html=1;align=center;verticalAlign=middle;whiteSpace=wrap;rounded=0;fontStyle=1;fontFamily=Work Sans;fontSource=https%3A%2F%2Ffonts.googleapis.com%2Fcss%3Ffamily%3DWork%2BSans;fontColor=#FF562C;fontSize=24;" parent="1" vertex="1">
          <mxGeometry x="-800" y="399" width="60" height="30" as="geometry" />
        </mxCell>
        <mxCell id="-CGO7wQmBqNUNphRW7Oc-5" value="Production" style="text;html=1;align=center;verticalAlign=middle;whiteSpace=wrap;rounded=0;fontFamily=Work Sans;fontSource=https%3A%2F%2Ffonts.googleapis.com%2Fcss%3Ffamily%3DWork%2BSans;fontStyle=1;fontSize=24;fontColor=#4758AB;" parent="1" vertex="1">
          <mxGeometry x="-430" y="399" width="60" height="30" as="geometry" />
        </mxCell>
        <mxCell id="-CGO7wQmBqNUNphRW7Oc-23" value="Data preparation" style="text;html=1;align=center;verticalAlign=middle;whiteSpace=wrap;rounded=0;fontStyle=1;fontFamily=Work Sans;fontSource=https%3A%2F%2Ffonts.googleapis.com%2Fcss%3Ffamily%3DWork%2BSans;fontColor=#FF562C;fontSize=16;" parent="1" vertex="1">
          <mxGeometry x="-805" y="585" width="60" height="30" as="geometry" />
        </mxCell>
        <mxCell id="-CGO7wQmBqNUNphRW7Oc-24" value="Data analysis" style="text;html=1;align=center;verticalAlign=middle;whiteSpace=wrap;rounded=0;fontStyle=1;fontFamily=Work Sans;fontSource=https%3A%2F%2Ffonts.googleapis.com%2Fcss%3Ffamily%3DWork%2BSans;fontColor=#FF562C;fontSize=16;" parent="1" vertex="1">
          <mxGeometry x="-1012" y="399" width="60" height="30" as="geometry" />
        </mxCell>
        <mxCell id="-CGO7wQmBqNUNphRW7Oc-25" value="Model training" style="text;html=1;align=center;verticalAlign=middle;whiteSpace=wrap;rounded=0;fontStyle=1;fontFamily=Work Sans;fontSource=https%3A%2F%2Ffonts.googleapis.com%2Fcss%3Ffamily%3DWork%2BSans;fontColor=#FF562C;fontSize=16;" parent="1" vertex="1">
          <mxGeometry x="-805" y="220" width="60" height="30" as="geometry" />
        </mxCell>
        <mxCell id="-CGO7wQmBqNUNphRW7Oc-26" value="Monitoring" style="text;html=1;align=center;verticalAlign=middle;whiteSpace=wrap;rounded=0;fontStyle=1;fontFamily=Work Sans;fontSource=https%3A%2F%2Ffonts.googleapis.com%2Fcss%3Ffamily%3DWork%2BSans;fontSize=16;fontColor=#4758AB;" parent="1" vertex="1">
          <mxGeometry x="-420" y="230" width="60" height="30" as="geometry" />
        </mxCell>
        <mxCell id="-CGO7wQmBqNUNphRW7Oc-27" value="Deployment" style="text;html=1;align=center;verticalAlign=middle;whiteSpace=wrap;rounded=0;fontStyle=1;fontFamily=Work Sans;fontSource=https%3A%2F%2Ffonts.googleapis.com%2Fcss%3Ffamily%3DWork%2BSans;fontSize=16;fontColor=#4758AB;" parent="1" vertex="1">
          <mxGeometry x="-210" y="399" width="60" height="30" as="geometry" />
        </mxCell>
        <mxCell id="-CGO7wQmBqNUNphRW7Oc-28" value="Model implementation" style="text;html=1;align=center;verticalAlign=middle;whiteSpace=wrap;rounded=0;fontStyle=1;fontFamily=Work Sans;fontSource=https%3A%2F%2Ffonts.googleapis.com%2Fcss%3Ffamily%3DWork%2BSans;fontSize=16;fontColor=#4758AB;" parent="1" vertex="1">
          <mxGeometry x="-420" y="585" width="60" height="30" as="geometry" />
        </mxCell>
        <mxCell id="-CGO7wQmBqNUNphRW7Oc-33" value="" style="shape=image;verticalLabelPosition=bottom;labelBackgroundColor=default;verticalAlign=top;aspect=fixed;imageAspect=0;image=data:image/png,iVBORw0KGgoAAAANSUhEUgAAARgAAAEYCAYAAACHjumMAAAABHNCSVQICAgIfAhkiAAACmpJREFUeF7t3WF20zgYBdAyh+WwHhbJethPh5yhQ2lrN7FsfdLTnX/EiSXdp74oLVOenvxHgAABAgQIECBAgAABAgQIECBAgAABAgQIECBAgAABAgQIECBAgAABAgQIECBAgAABAgQIECBAgAABAgQIECBAgAABAgQIECBAgAABAgQIECBAgAABAgQIECBAgAABAgQIECBAgAABAgQIECBAgAABAgQIECBAgAABAgQIECBAgAABAgQIECBAgAABAgQIECBAgAABAgQIECBAgAABAgQIECBAgAABAgQIECBAgAABAgQIECBAgAABAgQIECBAgAABAgQIECBAgAABAgQIECBAgAABAgQIECBAgAABAgQIECBAgAABAgQIECBAgAABAgQIECBAgAABAgQIECCwmsCX1RZctd7n79+eq8Y2bo3Alx8/l//6Wh7g6q2nWK4WHv/+KxeNgrlofyqWi2Anvu2KRaNgTt6wiuVk0MDbrVQ0CubEDaxcTsQMv9UqJfNPeI6WR4BAoYATzAn4Ti4nIC56i/STjIJp3NjKpRHQy5+SS8ZHJBucAIHLBJxgGmidXhrwvPQvgdRTjBOMjU6AwGUCTjAHaZ1eDsJ52aZA4inGCWYzbhcIEGgVcII5IHj26SXxnesA65QvsRf2Y/u6f9nVqwSUylWyfe/7Osezy6bvSq4ZzUeka1x376pcdnmmvSjX99EpmPcmlz5iE17KW35z+f4dgYLpuCVtvo7YhUPJ+Q++ginciIYmkC4Q/U3evW+6eZdJ39rWN4JA5I+p94rlLfqRonnk/i/jHRnn7Vz9eS4B++TpafmPSEc2wVzb3GwJ1AnEFYzCqNtMRibwViCuYN4u0J8JEKgTUDB19kYmEC+gYOIjtkACdQIKps7eyATiBRRMfMQWSKBOQMHU2RuZQLyAgomP2AIJ1AkomDp7IxOIF1Aw8RFbIIE6AQVTZ29kAvECCiY+YgskUCegYOrsjUwgXkDBxEdsgQTqBBRMnb2RCcQLKJj4iC2QQJ1A9K/MrGM18muBe39Hj9/6l7dvFExepkOs6N5SeVtESmaI+E6bhI9Ip1G60U3gVixHyuVFr+W1EhhPwAlmvEymm5FSmC6ybhNWMN2ocwZSKDlZXr0SBXO1cMj9lUpIkJ2XoWA6g882nGKZLbGx5uubvGPlMdRslMtQcUw5GQUzZWzXT1q5XG+8wggKZoWUH1yjcnkQzNM3BRTMJo0LBAi0CiiYVkGvJ0BgU0DBbNK4QIBAq4CCaRX0egIENgUUzCaNCwQItAoomFZBrydAYFNAwWzSrHvhrF+ZcNZ91k1i/pX7XwXmz/CSFdzK4cjfh1Eql8Qx7U0VzLTRXT/xe0pGoVyfw8wjKJiZ0+swdwXSATl4CN+DCQ7X0ghUCyiY6gSMTyBYQMEEh2tpBKoFFEx1AsYnECygYILDtTQC1QIKpjoB4xMIFlAwweFaGoFqAQVTnYDxCQQLKJjgcC2NQLWAgqlOwPgEggUUTHC4lkagWkDBVCdgfALBAgomOFxLI1AtoGCqEzA+gWABBRMcrqURqBZQMNUJGJ9AsICCCQ7X0ghUCyiY6gSMTyBYQMEEh2tpBKoFFEx1AsYnECygYILDtTQC1QIKpjoB4xMIFlAwweFaGoFqAQVTnYDxCQQLKJjgcC2NQLWAgqlOwPgEggUUTHC4lkagWkDBVCdgfALBAgomOFxLI1AtoGCqEzA+gWABBRMcrqURqBZQMNUJGJ9AsICCCQ7X0ghUCyiY6gSMTyBYQMEEh2tpBKoFFEx1AsYnECygYILDtTQC1QIKpjoB4xMIFlAwweFaGoFqAQVTnYDxCQQLKJjgcC2NQLWAgqlOwPgEggUUTHC4lkagWkDBVCdgfALBAgomOFxLI1AtoGCqEzA+gWABBRMcrqURqBZQMNUJGJ9AsICCCQ7X0ghUCyiY6gSMTyBYQMEEh2tpBKoFFEx1AsYnECygYILDHWFpX378/DLCPMyhRkDB1LgbdUNAIW3ATPqwgpk0uJmmfW9p3Pu8mda++ly/rg5g/X0ElEcf59FGcYIZLRHzIRAkoGCCwrQUAqMJKJjREjEfAkECCiYoTEshMJqAghktEfMhECSgYILCtBQCowkomNESMR8CQQIKJihMSyEwmoCCGS0R8yEQJKBggsK0FAKjCSiY0RIxHwJBAgomKExLITCagIIZLRHzIRAkoGCCwrQUAqMJKJjREjEfAkECCiYoTEshMJqAghktEfMhECSgYDqF+fz923OnoQwzgIC8/wtBwfxysBkG+Io0hUgBBRMZq0URGENAwXTMwUmpI3bhUHL+g69gOm9Em68zeOfh5Ps3uILpvAFvw9mEBegdhpTre2T/LtJ7ky6PvN6M/s2gLuSXDKJU9lnj/t3glsAf+UJvGWc/EldXFXhk/81i5CPSLEmZJ4EJBRTMwdAS320OUnjZCQKp+ymuYFqC8rHnhK8UtyDwSiCuYHqm21JmPedprLEFkveRghl775kdgakF4n6K9JJGy8edR99RWsaaeveYfLPAo3utecDON/D3YE4Af9kkiuYEzEVukV4sLzH6iPTBhlYUH6B4iMABAQVzAG3rJau8K22t3+P3Cay0T2K/B3OLuvUk0rIRWse+b6t61kwCLftppnW+nquC+SS51k2haD4BXuBy6x6amSi6YG7BtH6Bn7U5Wucx8yZbde5n7Z2Z/RTMHenZKHcgeQqBDwTiC+a25rNOD4rmgx3kIQI7AksUjJLZ2QEuEbhQwI+pL8R1awKrCyiYB3fAWR+3HhzW0wlMKbDMR6RbOmeXg+/JTLnnTbqjwFIFo2Q67ixDEfgloGBO2gZOMydBuk2UwHIFc0vv7I9Kr3eEoon6+rCYRoElC+bqknnJRNk07k4vn15g2YLpVTLKZvqvEQtoEFi6YHqXzEc5OeV8pOKxFIHlC2aEkknZTKutw5vD54krmN9GV37j9/MYPGNWASWzn5y/yfvbx0bZ3yiuEjgi4ATzRs1J5sg2Wvs13py283eCeWNjs2xvFlcIPCrgBLMj5jSzg+PS/wLelLY3gxPMts2TjbOD4xKBOwScYO5AenmKE80DWAs91RvRdthOMNs2767YSO9IPEBgV8AJZpdn+6LTzLbNale88WwnrmC2be66omjuYop9knLZj1bB7Ps8fFXhPEw27QuUy+fRKZjPjQ4/Q9kcphv+hcpl+IhMkAABAgQIECBAgAABAgQIECBAgAABAgQIECBAgAABAgQIECBAgAABAgQIECBAgAABAgQIECBAgAABAgQIECBAgAABAgQIECBAgAABAgQIECBAgAABAgQIECBAgAABAgQIECBAgAABAgQIECBAgAABAgQIECBAgAABAgQIECBAgAABAgQIECBAgAABAgQIECBAgAABAgQIECBAgAABAgQIECBAgAABAgQIECBAgAABAgQIECBAgAABAgQIECBAgAABAgQIECBAgAABAgQIECBAgAABAgQIECBAgAABAgQIECBAgAABAgQIECBAgAABAgQIECBAgAABAgQIECBAoEjgX91IOelWFrz4AAAAAElFTkSuQmCC;" parent="1" vertex="1">
          <mxGeometry x="-810" y="519.5" width="70" height="70" as="geometry" />
        </mxCell>
        <mxCell id="-CGO7wQmBqNUNphRW7Oc-34" value="" style="shape=image;verticalLabelPosition=bottom;labelBackgroundColor=default;verticalAlign=top;aspect=fixed;imageAspect=0;image=data:image/png,iVBORw0KGgoAAAANSUhEUgAAARgAAAEYCAYAAACHjumMAAAABHNCSVQICAgIfAhkiAAACnlJREFUeF7t3Vl2GzcQBVA6J8vJerLIrCf7ccwTy9bAnhsooOr6z+wmhlvFR1CWpcfDHwIECBAgQIAAAQIECBAgQIAAAQIECBAgQIAAAQIECBAgQIAAAQIECBAgQIAAAQIECBAgQIAAAQIECBAgQIAAAQIECBAgQIAAAQIECBAgQIAAAQIECBAgQIAAAQIECBAgQIAAAQIECBAgQIAAAQIECBAgQIAAAQIECBAgQIAAAQIECBAgQIAAAQIECBAgQIAAAQIECBAgQIAAAQIECBAgQIAAAQIECBAgQIAAAQIECBAgQIAAAQIECBAgQIAAAQIECBAgQIAAAQIECBAgQIAAAQIECBAgQIAAAQIECBAgQIAAAQIECBAgQIAAAQIECBAgQIAAAQIECBAgQIAAgWoC36ptOGq/3//+63vU3OaNEfj2z7/lX1/lAVq3nmBpLTz++JWDRsA06k/B0gh24mErBo2AublhBcvNoAmHqxQ0AubGBhYuN2ImH6pKyPyRvI62R4BAoIATzA34Ti43IBYdIvtJRsBcbGzhchHQ0x+ZQ8ZHJA1OgEAzASeYC7ROLxfwPPWDQNZTjBOMRidAoJmAE8xJWqeXk3CetiiQ8RTjBLNYbhcIELgq4ARzQvDu00vGd64TrFM+RS+sl+3P9cuuthIQKq1k+477vo53h03fnbSZzUekNq6rowqXVZ5pL6rr19IJmK8mTR/RhE15wwdX348lEDAdW1LzdcQOnEqdf+MLmMBGNDWB7AKpv8i79kU37zLZW9v+RhBI+c/Ua8HyGf1M0BwZ/22+M/N8Xqu/zyWgTx6P8h+RzjTBXG1utQTiBNIFjMCIayYzE/gskC5gPm/Q3wkQiBMQMHH2ZiaQXkDApC+xDRKIExAwcfZmJpBeQMCkL7ENEogTEDBx9mYmkF5AwKQvsQ0SiBMQMHH2ZiaQXkDApC+xDRKIExAwcfZmJpBeQMCkL7ENEogTEDBx9mYmkF5AwKQvsQ0SiBMQMHH2ZiaQXkDApC+xDRKIE0j9IzPjWHPMPNLP1vETAefsKSeYOevWfNUjhctzs6Otp3kBkkwgYJIU0jYIjCggYEasSvCaRj0tjLqu4HINPb2AGbo8FkdgbgEBM3f9rJ7A0AICZujyWByBuQUEzNz1s3oCQwsImKHLY3EE5hYQMHPXz+oJDC0gYIYuT8zifNdsjHvGWQVMxqresCchcwOiIR4CRhMsCjxDRtAs8riwQ8B/dtyBVP2WFiHju3JrdJUTTI062yWBEAEBE8JuUgI1BARMjTrbJYEQAQETwm5SAjUEBEyNOtslgRABARPCblICNQQETI062yWBEAEBE8JuUgI1BARMjTrbJYEQAQETwm5SAjUEBEyNOtslgRABARPCblICNQQETI062yWBEAEBE8JuUgI1BARMjTrbJYEQAQETwm5SAjUEBEyNOtslgRABP9EuhH2eSf3kuXlqNeJKnWBGrMogaxIugxRi4mUImImL13LpwqWlbp2xBUydWu/eqXDZTeXGDQEBswHkMgEC5wUEzHk7zyRAYENAwGwAuUyAwHkBAXPezjMJENgQEDAbQC4TIHBeQMCct/NMAgQ2BATMBpDL4wi0+B3Z4+wu50oETM66ptuVcJmzpAJmzrqVWrVwmbfc/rPjvLUbbuWCYLiShC/ICSa8BBZAIK+AgMlbWzsjEC4gYMJLYAEE8goImLy1tTMC4QICJrwEFkAgr4CAyVtbOyMQLiBgwktgAQTyCgiYvLW1MwLhAgImvAQWQCCvgIDJW1s7IxAuIGDCS2ABBPIKCJi8tbUzAuECAia8BBZAIK+AgMlbWzsjEC4gYMJLYAEE8goImLy1tTMC4QICJrwEFkAgr4CfaJe3tt131uJ3Wvsped3LeOuETjC3chrsboFnaLUIrrvXabzXAgLmtYtHBxMQMoMVZOdyBMxOKLfFCwiZ+BocXYGAOSrmfgIEdgsImN1UbiRA4KiAgDkq5n4CBHYLCJjdVG4kQOCogIA5KuZ+AgR2CwiY3VRuJEDgqICAOSpW4P5Rv3t21HUVaInTWxQwp+k8kQCBLQEBsyVU9Ppop4XR1lO0LQ5v2392PExW5wle1HVq3WqnTjCtZI1LgMBDwGgCAgSaCQiYZrQGJkBAwOgBAgSaCQiYZrQGJkBAwOgBAgSaCQiYZrQGJkBAwOgBAgSaCQiYZrQGJkBAwOgBAgSaCQiYZrQGJkBAwOgBAgSaCQiYZrQGJkBAwOgBAgSaCQiYZrQGJkBAwOgBAgSaCQiYZrQGJkBAwHTqAb9XuRP0INOo9/+FEDA/HDTDIK9Ky0gnIGDSldSGCIwjIGA61sJJqSN24FTq/BtfwHRuRM3XGbzzdOr7EVzAdG7A53SaMAC9w5Tq+hXZ70X6atLlkffN6PcPdSFvMolQWWf9tn55vqtXCn7khX5lnvlUrbiHwJH+67GeO+bwEekORWMQIPBSQMC8ZNl+MOO7zfau3dFKIGs/pQuYK4XysafVy8e4VQXSBUzPQl4Js57rNNfYApn7SMCM3XtWR2BqgXT/ivRWjSsfd46+o1yZa+rusfjLAkd77fKEnQfwfTA3gL81iaC5AbPIENmD5a2MPiK9aGhB8QLFQwROCAiYE2hLT6nyrrS0f4/vE6jUJ2m/BvMs9dWTyJVGuDr3vlZ110wCV/pppn2+X6uA2ajc1aYQNBvABS5f7aGZiVIHzLMwV1/gdzXH1XXM3GRV135X78zsJ2B2VE+j7EByC4EXAukD5rnnu04PguZFB3mIwIpAiYARMisd4BKBhgL+mbohrqEJVBcQMAc74K6PWwendTuBKQXKfER6VufucPA1mSl73qI7CpQKGCHTsbNMReCHgIC5qQ2cZm6CNEwqgXIB86ze3R+V3neEoEn1+rCZiwIlA6Z1yLzVRNhc7E5Pn16gbMD0ChlhM/1rxAYuCJQOmN4h86pOTjmvVDyWRaB8wIwQMlmaqdo+vDlsV1zA/DRq+YXf7TK4Y1YBIbNeOd/J+9NHo6w3iqsEzgg4wXxSc5I500a1n+PNabn+TjCfbDTLcrO4QuCogBPMipjTzAqOS78EvCktN4MTzLLNQ+Os4LhEYIeAE8wOpLdbnGgOYBW61RvRcrGdYJZtvlzRSF9IPEBgVcAJZpVn+aLTzLJNtSveeJYrLmCWbXZdETS7mNLeJFzWSytg1n0OXxU4h8mmfYJw2S6dgNk2On2HsDlNN/wThcvwJbJAAgQIECBAgAABAgQIECBAgAABAgQIECBAgAABAgQIECBAgAABAgQIECBAgAABAgQIECBAgAABAgQIECBAgAABAgQIECBAgAABAgQIECBAgAABAgQIECBAgAABAgQIECBAgAABAgQIECBAgAABAgQIECBAgAABAgQIECBAgAABAgQIECBAgAABAgQIECBAgAABAgQIECBAgAABAgQIECBAgAABAgQIECBAgAABAgQIECBAgAABAgQIECBAgAABAgQIECBAgAABAgQIECBAgAABAgQIECBAgAABAgQIECBAgAABAgQIECBAgAABAgQIECBAgAABAgQIECBAgACBIIH/AEVGPOHwtD6gAAAAAElFTkSuQmCC;" parent="1" vertex="1">
          <mxGeometry x="-957" y="379" width="70" height="70" as="geometry" />
        </mxCell>
        <mxCell id="-CGO7wQmBqNUNphRW7Oc-35" value="" style="shape=image;verticalLabelPosition=bottom;labelBackgroundColor=default;verticalAlign=top;aspect=fixed;imageAspect=0;image=data:image/png,iVBORw0KGgoAAAANSUhEUgAAARgAAAEYCAYAAACHjumMAAAABHNCSVQICAgIfAhkiAAACpNJREFUeF7t3VF22zYQBVClp8vperrIrqf7Sav0KHVsiQJBkAPM3P5VAgngzugJsh37dvMfAQIECBAgQIAAAQIECBAgQIAAAQIECBAgQIAAAQIECBAgQIAAAQIECBAgQIAAAQIECBAgQIAAAQIECBAgQIAAAQIECBAgQIAAAQIECBAgQIAAAQIECBAgQIAAAQIECBAgQIAAAQIECBAgQIAAAQIECBAgQIAAAQIECBAgQIAAAQIECBAgQIAAAQIECBAgQIAAAQIECBAgQIAAAQIECBAgQIAAAQIECBAgQIAAAQIECBAgQIAAAQIECBAgQIAAAQIECBAgQIAAAQIECBAgQIAAAQIECBAgQIAAAQIECBAgQIAAAQIECBAgQIAAAQIECBAgQIAAAQIECBAgQIBANYFv1TZ81X6///nH96vmMs8cAt/++tvr6VMpgAzuTcEyGHTB2wma/4smYAY1sGAZBJnoNoLmdhMwBxtasBwELHB55aARMAcaXLgcwCt2adWQ+a1YnW2XAIELBZxgOrCdXDrQXPJDoNpJRsDsbHzhshPM8C8ClULGR6Qv5fcAAQKjBJxgdkg6vezAMnRToMopxglmsw08SYDAEQEnmEY9p5dGKMOaBSqcYpxgmtvBQAIE9go4wTSIjT69VHjnamBdcohe2Fe23/cNN7pXQKj0ys113cc6jg6buXY6ZjU+Io1x3LyLcNnkWfZJdX1fOgHz3ujQCE14iG/6i9V3u0QCZtvn0LOa7xDfMher8+tSCZjXNp4hQOCgQKov8m590c27zMFOcTmBDoEU36beCpbPJj1Bs+f+j/l65vm8Vv+/loA++Vqvch+ReprgK5tHCBBoEVg+YARGS5mNIRAjsHzAxLCZlQCBFgEB06JkDAECXQICpovNRQQItAgImBYlYwgQ6BIQMF1sLiJAoEVAwLQoGUOAQJeAgOlicxEBAi0CAqZFyRgCBLoEBEwXm4sIEGgREDAtSsYQINAlIGC62FxEgECLgIBpUTKGAIEuAQHTxeYiAgRaBARMi5IxBAh0CQiYLjYXESDQIpDqV2a2bNiY1wIz/W4dvxHwdZ1WesYJZqVqnbjWmcLlvs3Z1nMifepbC5jU5bU5ArECAibWf4rZZz0tzLquKYq2yCIEzCKFskwCKwoImBWrZs0EFhEQMIsUyjIJrCggYFasmjUTWERAwCxSKMsksKKAgFmxatZMYBEBAbNIoc5cpp+aPVO39r0FTO36/9y9kNEIZwgImDNUF73nPWQEzaLFm3TZ/rHjpIWJXNYZIeOnciMrGje3E0ycvZkJpBcQMOlLbIME4gQETJy9mQmkFxAw6UtsgwTiBARMnL2ZCaQXEDDpS2yDBOIEBEycvZkJpBcQMOlLbIME4gQETJy9mQmkFxAw6UtsgwTiBARMnL2ZCaQXEDDpS2yDBOIEBEycvZkJpBcQMOlLbIME4gQETJy9mQmkFxAw6UtsgwTiBARMnL2ZCaQX8Bvt0pd43wb95rl9XkZvCzjBbPuUela4lCr3JZsVMJcwzz+JcJm/RiuuUMCsWLXBaxYug0Hd7qeAgNEMBAicJiBgTqN1YwIEBIweIEDgNAEBcxqtGxMgIGD0AAECpwkImNNo3ZgAAQGjB25n/C1qrATuAgJGH/wQEDIa4QwBAXOG6qL3FDKLFm7iZfvHjhMXJ2JpZ4WMnxaOqGb8nE4w8TWwAgJpBQRM2tLaGIF4AQETXwMrIJBWQMCkLa2NEYgXEDDxNbACAmkFBEza0toYgXgBARNfAysgkFZAwKQtrY0RiBcQMPE1sAICaQUETNrS2hiBeAEBE18DKyCQVkDApC2tjRGIFxAw8TWwAgJpBQRM2tLaGIF4AQETXwMrIJBWQMCkLa2NEYgXEDDxNbACAmkF/Ea7tKXt35jfPtdv58pfBQSMjvgpIFg0w2gBH5FGiy56P+GyaOEmX7aAmbxAVyxPuFyhXHMOAVOz7nZN4BIBAXMJs0kI1BQQMDXrbtcELhEQMJcwm4RATQEBU7Pudk3gEgEBcwmzSQjUFBAwNev+y67P+nvUR2lnXdfRfVW6XsBUqra9ErhYQMBcDD7rdLOdFmZbz6x1m31d/i3S7BW6cH1e1BdiF5nKCaZIoW2TQISAgIlQNyeBIgICpkihbZNAhICAiVA3J4EiAgKmSKFtk0CEgICJUDcngSICAqZIoW2TQISAgIlQNyeBIgICpkihbZNAhICAiVA3J4EiAgKmSKFtk0CEgICJUDcngSICAqZIoW2TQISAgIlQNyeBIgICpkihbZNAhICAiVA3J4EiAgKmSKFtk0CEgIA5Sd3fez4JdtLbqvfzwpQMGM3wvBk8SmC0QMmAGY3ofgQIPBcQMM9dhjzqpDSEcfqbqPPrEgmY1zZDntF8QxinvYn6bpdGwGz7DHlWEw5hnO4m6vq+JP4u0nujISM+NqO/PzSENOQmQmUf+7d9w+cbfaTge17oR+aZT82KZhDY038zrLdnDT4i9ai5hgCBJgEB08R0u1V4t2mkMGyAQJV+Wj5gjhTKx54BrxS3ILAhsHzAbOxt+FNHwmz4YtxwWYFKfSRglm1TCycwv8Dy30V6EB/5uLP3HeXIXPO3hBWeKbC3185cyxX39nMwHcqPJhE0HXhFL6kWLI8y+4j0r4SgKPqqt+3TBQTMAeKq70oHyEpeWrlP0nwN5t65R08iRxrh6NwlX3nJN32kn7LQCJhPlTzaFIImy0ujfx9He6h/5vmuTBUwd96jL/BRzXF0HfO1ihW9ExjVO+/mWel5AfOkWhrlCYqHCHQIpAuYu8Go04Og6egolxD4IJAyYISMHicwh4BvU89RB6sgkFJAwLwp66iPW2+m8TSBlAJpPyLdqzU6HHxNJuVrwKZOFEgdMELmxM5xawINAgKmAenZEKeZZyoeI/CrQPqAuW939Eelj4SCxkuKwGuBEgFzdsg8eIXN60bzTE2BMgFzVcgIm5ovJLt+LlAqYK4OmWfkTjnPVDyWVaBcwMwQMlmbKfu+vDnsr3DJgBEy+xvFFf8JCJl9nVD2J3k1yr5GMZpAj0DZE8wD68xvYfcUxDXzC3hzaq9R2RPMg0iztDeLkQT2CpQ/wXwEc5rZ2z41x3tTaq97+RPMRyqN0944RhJoEXCC2VByotnAKfyUN6L24jvBbFhppA0cTxFoEHCCaUC6D3GaaYQqMMwbT3uRBUy71Y+RgmYnWLLhwmVfQQXMPq8vowXOF5K0DwiX/aUVMPvNXl4hbF7SLP+EcFm+hDZAgAABAgQIECBAgAABAgQIECBAgAABAgQIECBAgAABAgQIECBAgAABAgQIECBAgAABAgQIECBAgAABAgQIECBAgAABAgQIECBAgAABAgQIECBAgAABAgQIECBAgAABAgQIECBAgAABAgQIECBAgAABAgQIECBAgAABAgQIECBAgAABAgQIECBAgAABAgQIECBAgAABAgQIECBAgAABAgQIECBAgAABAgQIECBAgAABAgQIECBAgAABAgQIECBAgAABAgQIECBAgAABAgQIECBAgAABAgQIECBAgAABAgQIECBAgAABAgQIECBAgAABAgQIECBAgAABAgQIECBwkcA/F947Y1Yy60oAAAAASUVORK5CYII=;" parent="1" vertex="1">
          <mxGeometry x="-810" y="242.5" width="70" height="70" as="geometry" />
        </mxCell>
        <mxCell id="-CGO7wQmBqNUNphRW7Oc-36" value="" style="shape=image;verticalLabelPosition=bottom;labelBackgroundColor=default;verticalAlign=top;aspect=fixed;imageAspect=0;image=data:image/png,iVBORw0KGgoAAAANSUhEUgAAARgAAAEYCAYAAACHjumMAAAABHNCSVQICAgIfAhkiAAACmZJREFUeF7t3W1yEzkQBuCwxd04AVUckSpOwOlYDOVab2KP9Wlpup/9txmNRnq6/VpOgLy9+Y8AAQIECBAgQIAAAQIECBAgQIAAAQIECBAgQIAAAQIECBAgQIAAAQIECBAgQIAAAQIECBAgQIAAAQIECBAgQIAAAQIECBAgQIAAAQIECBAgQIAAAQIECBAgQIAAAQIECBAgQIAAAQIECBAgQIAAAQIECBAgQIAAAQIECBAgQIAAAQIECBAgQIAAAQIECBAgQIAAAQIECBAgQIAAAQIECBAgQIAAAQIECBAgQIAAAQIECBAgQIAAAQIECBAgQIAAAQIECBAgQIAAAQIECBAgQIAAAQIECBAgQIAAAQIECBAgQIAAAQIECBAgQIAAAQIECBAgQIAAAQIECBAgQCCbwKdsG37Vfr98+/HrVc/ynD0Efn7/6vX0rhRABvemYBkMesLpBM1/RRMwgxpYsAyCDDSNoHl7EzCdDS1YOgET3J45aARMR4MLlw68ZLdmDZl/ktXZdgkQeKGAE0wDtpNLA5pb/ghkO8kImMrGFy6VYIZ/EMgUMj4ifSi/LxAgMErACaZC0umlAsvQQ4EspxgnmMM2cJEAgR4BJ5hCPaeXQijDigUynGKcYIrbwUACBGoFnGAKxEafXjK8cxWwnnKIXqgr2+e64Ua3CgiVVrm97rut4+iw2WunY1bjI9IYx8NZhMshz2kvquvz0gmY50ZdIzRhF9/2N6vvcYkEzLFP11XN18V3mpvV+XGpBMxjG1cIEOgUCPVN3qNvunmX6ewUtxNoEAjxY+qjYHlv0hI0NfNfn9fynPdr9f/nEtAnH+uV7iNSSxN8ZPMVAgRKBE4fMAKjpMzGEFgjcPqAWcPmqQQIlAgImBIlYwgQaBIQME1sbiJAoERAwJQoGUOAQJOAgGlicxMBAiUCAqZEyRgCBJoEBEwTm5sIECgREDAlSsYQINAkIGCa2NxEgECJgIApUTKGAIEmAQHTxOYmAgRKBARMiZIxBAg0CQiYJjY3ESBQIiBgSpSMIUCgSUDANLG5iQCBEoFQ/2RmyYaNeSxQ+m/r9Pxrfa94xuMduvJqASeYV4tv+rzSF/5l+TVjb7dbc1/N2E1JLeu3gIDRBgQITBMQMNNozzNxy2mh9p7a8Re9lnvOo55jpQImR53tksASAQGzhN1DCeQQEDA56myXBJYICJgl7B5KIIeAgMlRZ7sksERAwCxh91ACOQQETI462yWBJQICZgm7hxLIISBgctTZLgksERAwS9g9lEAOAQGTo852SWCJgIBZwu6hBHIICJgcdbZLAksEBMwSdg8lkENAwOSos10SWCIgYJaweyiBHAICJked7ZLAEgEBs4TdQwnkEBAwOepslwSWCAiYJeweSiCHgIDJUWe7JLBEQMAsYfdQAjkEBEyOOtslgSUCAmYJu4cSyCEgYHLU2S4JLBEQMEvYPZRADgEBk6POdklgicDnJU/10BACfnd0iDJO3YQTzFRekxPILSBgctff7glMFRAwU3lNTiC3gIDJXX+7JzBVQMBM5TU5gdwCAiZ3/e2ewFQBATOV1+QEcgsImNz1t3sCUwUEzFRekxPILSBgctf/z+5/fv/6CQOBGQICZobqCecUMics2gmWLGBOUKRXLVHIvEo6z3P8Zcc8tS7a6ayQ8Rcji/jDDXKCCVdSGyKwj4CA2acWVkIgnICACVdSGyKwj4CA2acWVkIgnICACVdSGyKwj4CA2acWVkIgnICACVdSGyKwj4CA2acWVkIgnICACVdSGyKwj4CA2acWVkIgnICACVdSGyKwj4CA2acWVkIgnICACVdSGyKwj4CA2acWVkIgnICACVdSGyKwj4CA2acWVkIgnICACVdSGyKwj4CA2acWVkIgnICACVdSGyKwj4CA2acWVkIgnICACVdSGyKwj4CA2acWVkIgnICACVdSGyKwj4CA2acWVkIgnICACVdSGyKwj4CA2acWVkIgnICACVdSGyKwj4CA2acWoVfS8juvW+4JjXjCzQmYExbNkgmcRUDAnKVSAdZZcyKpGRuAJuwWPofdmY1tKSA4tizLtEU5wUyjNTEBAgJGDxAgME1AwEyjNTEBAgJGDxAgME1AwEyjNTEBAgJGDxAgME1AwEyjNTEBAgJGDxAgME1AwEyjNTEBAgJGDxAgME1AwEyjNTEBAgJGDxAgME1AwEyjNTEBAgJGDxAgME1AwEyjNTEBAgJGDxAgME1AwEyjNTEBAgJmUg98+fbj16SpTbuhgHrfL0rKgNEM95vBVwmMFkgZMKMRzUeAwH0BAXPfZchXnZSGMG4/iTo/LpGAeWwz5IrmG8K47STqe1waAXPsM+SqJhzCuN0k6vq8JH4v0nOjISNum9HvBhpCumQSoVLH/qlu+H6jewpe80Lvec5+ala0g0BN/+2w3pY1+IjUouYeAgSKBARMEdPbW4Z3m0IKwwYIZOmn0wdMT6F87BnwSjEFgQOB0wfMwd6GX+oJs+GLMeFpBTL1kYA5bZtaOIH9BU7/U6Qrcc/Hndp3lJ5n7d8SVjhToLbXZq7lFXP7czANytcmETQNeElvyRYs1zL7iPRbQlAkfdXb9nQBAdNBnPVdqYMs5a2Z+yTM92Aundt7EulphN5np3zlBd90Tz9FoREw7yrZ2xSCJspLo30fvT3U/uT97gwVMBfe3hf4qOboXcd+rWJFzwRG9c6z55zpuoC5Uy2NcgfFlwg0CIQLmIvBqNODoGnoKLcQuBEIGTBCRo8T2EPAj6n3qINVEAgpIGCelHXUx60nj3GZQEiBsB+RLtUaHQ6+JxPyNWBTEwVCB4yQmdg5piZQICBgCpDuDXGauafiawT+LxA+YC7bHf1R6ZZQ0HhJEXgskCJgZofMlVfYPG40V3IKpAmYV4WMsMn5QrLr+wKpAubVIXOP3CnnnoqvRRVIFzA7hEzUZoq+L28O9RVOGTBCpr5R3PFXQMjUdULaP8mrUeoaxWgCLQJpTzBXrJk/wm4piHv2F/DmVF6jtCeYK5FmKW8WIwnUCqQ/wdyCOc3Utk/O8d6Uyuue/gRzS6VxyhvHSAIlAk4wB0pONAc4iS95IyovvhPMgZVGOsBxiUCBgBNMAdJliNNMIVSCYd54yossYMqt/owUNJVgwYYLl7qCCpg6rw+jBc4HkrBfEC71pRUw9WYP7xA2D2lOf0G4nL6ENkCAAAECBAgQIECAAAECBAgQIECAAAECBAgQIECAAAECBAgQIECAAAECBAgQIECAAAECBAgQIECAAAECBAgQIECAAAECBAgQIECAAAECBAgQIECAAAECBAgQIECAAAECBAgQIECAAAECBAgQIECAAAECBAgQIECAAAECBAgQIECAAAECBAgQIECAAAECBAgQIECAAAECBAgQIECAAAECBAgQIECAAAECBAgQIECAAAECBAgQIECAAAECBAgQIECAAAECBAgQIECAAAECBAgQIECAAAECBAgQIECAAAECBAgQIECAAAECBAgQIECAAAECBAgQIECAAAECBAgQIPAigX8BjMgugjvbCNQAAAAASUVORK5CYII=;" parent="1" vertex="1">
          <mxGeometry x="-425" y="519.5" width="70" height="70" as="geometry" />
        </mxCell>
        <mxCell id="-CGO7wQmBqNUNphRW7Oc-37" value="" style="shape=image;verticalLabelPosition=bottom;labelBackgroundColor=default;verticalAlign=top;aspect=fixed;imageAspect=0;image=data:image/png,iVBORw0KGgoAAAANSUhEUgAAARgAAAEYCAYAAACHjumMAAAABHNCSVQICAgIfAhkiAAACqtJREFUeF7t3WFu7DQUBtA+xN5YARJLRGIFrA5o0YjSxoljO4mv7+EfiR3b53q+8bR97dub/wgQIECAAAECBAgQIECAAAECBAgQIECAAAECBAgQIECAAAECBAgQIECAAAECBAgQIECAAAECBAgQIECAAAECBAgQIECAAAECBAgQIECAAAECBAgQIECAAAECBAgQIECAAAECBAgQIECAAAECBAgQIECAAAECBAgQIECAAAECBAgQIECAAAECBAgQIECAAAECBAgQIECAAAECBAgQIECAAAECBAgQIECAAAECBAgQIECAAAECBAgQIECAAAECBAgQIECAAAECBAgQIECAAAECBAgQIECAAAECBAgQIECAAAECBAgQIECAAAECBAgQIECAAAECBAgQIECAAAECBLIJ/Mi24LvW+8tvf/x111jGmUPgz99/9Xr6Ugogg/emYBkMGvBxgua/ogmYQRtYsAyCXOgxgubtTcB0bmjB0gmYoHvmoBEwHRtcuHTgJeuaNWR+SlZnyyVA4EYBJ5gGbCeXBjRdPgSynWQEzMmNL1xOgmn+TSBTyPiI9K38LhAgMErACeaEpNPLCSxNdwWynGKcYHa3gZsECPQIOMFU6jm9VEJpVi2Q4RTjBFO9HTQkQOCsgBNMhdjo00uGd64K1pBN7IVzZfv5XHOtWwWESqvcXP0+13F02My10jGz8RFpjOPuU4TLLk/Ym+p6XDoBc2zU1cIm7OKbvrP67pdIwOz7dN21+br4wnRW53KpBEzZxh0CBDoFlvoi794X3bzLdO4U3Qk0CCzxbeq9YPlq0hI0Z57/Gq9lnK9z9f+xBOyT7/VK9xGpZRN8Z3OFAIEagfABIzBqyqwNgWcEwgfMM2xGJUCgRkDA1ChpQ4BAk4CAaWLTiQCBGgEBU6OkDQECTQICpolNJwIEagQETI2SNgQINAkImCY2nQgQqBEQMDVK2hAg0CQgYJrYdCJAoEZAwNQoaUOAQJOAgGli04kAgRoBAVOjpA0BAk0CAqaJTScCBGoEBEyNkjYECDQJCJgmNp0IEKgRWOpXZtYsWJuywEy/W8dvBCzXKdIdJ5hI1bpwrjOFy/syZ5vPhfRLP1rALF1eiyPwrICAedZ/itFnPS3MOq8pihZkEgImSKFMk0BEAQETsWrmTCCIgIAJUijTJBBRQMBErJo5EwgiIGCCFMo0CUQUEDARq2bOBIIICJgghco4TT/NG7/qAiZ+DZdcgXBZo6z+LdIadVxmFYJlmVJ+LETArFXPW1cjDG7lDjmYj0ghy2bSBGIICJgYdTJLAiEFBEzIspk0gRgCAiZGncySQEgBAROybCZNIIaAgIlRJ7MkEFJAwIQsm0kTiCEgYGLUySwJhBQQMCHLZtIEYggImBh1MksCIQUETMiymTSBGAICJkadzJJASAEBE7JsJk0ghoCAiVEnsyQQUkDAhCybSROIISBgYtTJLAmEFBAwIctm0gRiCPiNdjHqNOUsr/rb0X5T3pTlbpqUE0wTm05XClwVXFfO2bO3BQTMtourDwsImYcLMGh4ATMI0mPGCwiZ8aZ3P1HA3C1uPAKJBARMomJbKoG7BQTM3eLGI5BIQMAkKralErhbQMDcLW48AokEBEyiYlsqgbsFBMzd4hOO5ydnJyzKIlMSMIsUsncZQqZXUP8tAQGzpZL0mpBJWvgLl+0fO16IG/HRV4WMn8qNuBv65+wE02/oCQQIFAQETAHGZQIE+gUETL+hJxAgUBAQMAUYlwkQ6BcQMP2GnkCAQEFAwBRgXCZAoF9AwPQbegIBAgUBAVOAcZkAgX4BAdNv6AkECBQEBEwBxmUCBPoFBEy/oScQIFAQEDAFGJcJEOgXEDD9hp5AgEBBQMAUYFwmQKBfQMD0G3oCAQIFAQFTgHGZAIF+AQHTb+gJBAgUBPxGuwJM5st++1zm6o9du4AZ6xn6aYIldPmmnLyPSFOW5f5JCZf7zTOMKGAyVPlgjcLlAMjtZgEB00ynIwECRwIC5kjIfQIEmgUETDOdjgQIHAkImCMh9wkQaBYQMM10OhIgcCQgYI6E3CdAoFlAwDTTrdPxqr9H3Ss067x615Wpv4DJVG1rJXCzgIC5GXzW4WY7Lcw2n1nrNvu8/Fuk2St04/y8qG/ETjKUE0ySQlsmgScEBMwT6sYkkERAwCQptGUSeEJAwDyhbkwCSQQETJJCWyaBJwQEzBPqxiSQREDAJCm0ZRJ4QkDAPKFuTAJJBARMkkJbJoEnBATME+rGJJBEQMAkKbRlEnhCQMA8oW5MAkkEBEySQlsmgScEBMwT6sYkkERAwCQptGUSeEJAwDyhbkwCSQQETJJCWyaBJwQEzEXq/t7zRbCTPla9twuTMmBshu3N4CqB0QIpA2Y0oucRILAtIGC2XYZcdVIawjj9Q9S5XCIBU7YZcsfmG8I47UPUd780AmbfZ8hdm3AI43QPUdfjkvi7SMdGQ1p83oz+/tAQ0kceIlTOsf8413y+1j0FP/NC7xlnPjUzmkHgzP6bYb4tc/ARqUVNHwIEqgQETBXT21uGd5tKCs0GCGTZT+EDpqdQPvYMeKV4BIEdgfABs7O24bd6wmz4ZDwwrECmfSRgwm5TEycwv0D47yK9iHs+7px9R+kZa/4tYYZXCpzda1fO5Y5n+zmYBuXXJhE0DXhJu2QLlleZfUT6R0JQJH3VW/blAgKmgzjru1IHWcqumffJMl+Ded+5vSeRno3QO3bKV97ii+7ZT6vQCJgvlezdFIJmlZdG+zp691D7yPP1XCpg3nl7X+CjNkfvPObbKmZ0JDBq7xyNE+m+gNmolo2ygeISgQaB5QLm3WDU6UHQNOwoXQh8ElgyYISMPU5gDgHfpp6jDmZBYEkBAXNQ1lEftw6GcZvAkgLLfkR6r9bocPA1mSVfAxZ1ocDSASNkLtw5Hk2gQkDAVCBtNXGa2VJxjcD/BZYPmPfljv6o9JlQ0HhJESgLpAiYq0PmxStsyhvNnZwCaQLmrpARNjlfSFa9LZAqYO4OmS1yp5wtFddWFUgXMDOEzKqbafV1eXM4X+GUASNkzm8UPf4VEDLndkLan+S1Uc5tFK0JtAikPcG8sK78FnZLQfSZX8CbU32N0p5gXkQ2S/1m0ZLAWYH0J5jPYE4zZ7dPzvbelOrrnv4E85nKxqnfOFoSqBFwgtlRcqLZwUl8yxtRffGdYHasbKQdHLcIVAg4wVQgvTdxmqmEStDMG099kQVMvdVHS0FzEmyx5sLlXEEFzDmvb60FzjeSZS8Il/OlFTDnzYo9hE2RJvwN4RK+hBZAgAABAgQIECBAgAABAgQIECBAgAABAgQIECBAgAABAgQIECBAgAABAgQIECBAgAABAgQIECBAgAABAgQIECBAgAABAgQIECBAgAABAgQIECBAgAABAgQIECBAgAABAgQIECBAgAABAgQIECBAgAABAgQIECBAgAABAgQIECBAgAABAgQIECBAgAABAgQIECBAgAABAgQIECBAgAABAgQIECBAgAABAgQIECBAgAABAgQIECBAgAABAgQIECBAgAABAgQIECBAgAABAgQIECBAgAABAgQIECBAgAABAgQIECBAgAABAgQIECBAgAABAgQIECBAgAABAgQIECBwk8DfAng5+FqqYIIAAAAASUVORK5CYII=;" parent="1" vertex="1">
          <mxGeometry x="-288" y="379" width="70" height="70" as="geometry" />
        </mxCell>
        <mxCell id="-CGO7wQmBqNUNphRW7Oc-39" value="" style="shape=image;verticalLabelPosition=bottom;labelBackgroundColor=default;verticalAlign=top;aspect=fixed;imageAspect=0;image=data:image/png,iVBORw0KGgoAAAANSUhEUgAAARgAAAEYCAYAAACHjumMAAAABHNCSVQICAgIfAhkiAAACo9JREFUeF7t3VuO20YUBFA5yN68ggBeYgCvIKtzMg4GmXgkqtlsUre6T/4i8XF5qlWi5uXbzX8ECBAgQIAAAQIECBAgQIAAAQIECBAgQIAAAQIECBAgQIAAAQIECBAgQIAAAQIECBAgQIAAAQIECBAgQIAAAQIECBAgQIAAAQIECBAgQIAAAQIECBAgQIAAAQIECBAgQIAAAQIECBAgQIAAAQIECBAgQIAAAQIECBAgQIAAAQIECBAgQIAAAQIECBAgQIAAAQIECBAgQIAAAQIECBAgQIAAAQIECBAgQIAAAQIECBAgQIAAAQIECBAgQIAAAQIECBAgQIAAAQIECBAgQIAAAQIECBAgQIAAAQIECBAgQIAAAQIECBAgQIAAAQIECBAgQIAAAQIECBAgQIAAAQKrCXxZ7YKvut6v377/uOpczlND4K8///B6+iUKIIPXpmIZDBp4OEXzX2gKZtACViyDICc6jKK53RTMwQWtWA4CLrD7ykWjYA4scOVyAG+xXVctmd8Wy9nlEiBwoYA7mA5sdy4daHb5KbDanYyC2bnwlctOMJt/ElipZHxE+hS/BwgQGCXgDmaHpLuXHVg23RRY5S7GHczmMvAkAQJHBNzBNOq5e2mEslmzwAp3Me5gmpeDDQkQ2CvgDqZBbPTdywrvXA2skZtYC/ti+33f5rbuFVAqvXK19vuY4+iyqXWlY6bxEWmM4+ZRlMsmT+yTcn0enYJ5bnRoC4vwEF/5neW7HZGC2fY59KzFd4gvZmc5P45KwTy28QwBAgcFpvoi79YX3bzLHFwpdifQITDFt6m3iuVXk56i2XP89/P1nOfXWf1/loB18jmv5T4i9SyCz2weIUCgRSC+YBRGS8y2IfAagfiCeQ2bsxIg0CKgYFqUbEOAQJeAgulisxMBAi0CCqZFyTYECHQJKJguNjsRINAioGBalGxDgECXgILpYrMTAQItAgqmRck2BAh0CSiYLjY7ESDQIqBgWpRsQ4BAl4CC6WKzEwECLQIKpkXJNgQIdAkomC42OxEg0CKgYFqUbEOAQJeAgulisxMBAi0CU/3JzJYLts1jgUp/W8dfBHycU9Iz7mCS0jpx1krl8naZ1eY5kX7qQyuYqeN1cQReK6BgXutf4uxV7xaqzlUitJAhFExIUMYkkCigYBJTMzOBEAEFExKUMQkkCiiYxNTMTCBEQMGEBGVMAokCCiYxNTMTCBFQMCFBrTimn+bNT13B5Gc45RUolzli9btIc+Q4zVUolmmi/HkhCmauPC+9GmVwKXfkyXxEiozN0AQyBBRMRk6mJBApoGAiYzM0gQwBBZORkykJRAoomMjYDE0gQ0DBZORkSgKRAgomMjZDE8gQUDAZOZmSQKSAgomMzdAEMgQUTEZOpiQQKaBgImMzNIEMAQWTkZMpCUQKKJjI2AxNIENAwWTkZEoCkQIKJjI2QxPIEFAwGTmZkkCkgIKJjM3QBDIE/EW7jJxKTnnWvx3tL+WVjLtrKHcwXWx2OlPgrOI6c2bHvi+gYO67ePTFAkrmxQEMOr2CGQTpMOMFlMx406uPqGCuFnc+AgsJKJiFwnapBK4WUDBXizsfgYUEFMxCYbtUAlcLKJirxZ2PwEICCmahsF0qgasFFMzV4s5HYCEBBbNQ2C6VwNUCCuZqcecjsJCAX3ZcKOzRl7rnlxL9VO5o/YzjuYPJyMmUBCIFFExkbIYmkCGgYDJyMiWBSAEFExmboQlkCCiYjJxMSSBSQMFExmZoAhkCCiYjJ1MSiBRQMJGxGZpAhoCCycjJlAQiBRRMZGyGJpAhoGAycjIlgUgBBRMZm6EJZAgomIycTEkgUkDBRMZmaAIZAgomIydTEogUUDCRsRmaQIaAgsnIyZQEIgX8RbvI2GoM7a/U1cih8hTuYCqnYzYC4QIKJjxA4xOoLKBgKqdjNgLhAgomPEDjE6gsoGAqp2M2AuECCiY8QOMTqCygYCqnYzYC4QIKJjxA4xOoLKBgKqdjNgLhAgomPMAR4+/5N6ZHnK/1GFXnap3fdrebgrEKCBA4TUDBnEabdeBqdwvV5slKs860ftmxThYvn8SL+uURTDeAO5jpInVBBOoIKJg6WZiEwHQCCma6SF0QgToCCqZOFiYhMJ2AgpkuUhdEoI6AgqmThUkITCegYKaL1AURqCOgYOpkYRIC0wkomOkidUEE6ggomDpZmITAdAIKZrpIXRCBOgIKpk4WJiEwnYCCmS5SF0SgjoCCqZOFSQhMJ6BgpovUBRGoI6Bg6mRhEgLTCSiY6SJ1QQTqCCiYk7L4+u37j5MO7bAFBeR9P5QlC8ZiuL8YPEpgtMCSBTMa0fEIELgvoGDuuwx51J3SEMbyB5Hz44gUzGObIc9YfEMYyx5EvtvRKJhtnyHPWoRDGMsdRK7PI/HvIj03GrLFx8Xo3x8aQvqSgyiVfexf9m1eb+sjge95oR85Tz01E1UQ2LP+KszbM4OPSD1q9iFAoElAwTQx3W4rvNs0UthsgMAq6ym+YI4E5WPPgFeKQxDYEIgvmI1rG/7UkTIbPowDxgqstI4UTOwyNTiB+gLx30V6Jz7ycWfvO8qRc9VfEiY8U2DvWjtzliuO7edgOpTfF4mi6cBbdJfViuU9Zh+R/pFQFIu+6l326QIK5gDxqu9KB8iW3HXldTLN12DeVu7RO5EjC+HouZd85U1+0UfW0yw0CuaXJI8uCkUzy0uj/zqOrqH+M9fbc6qCeeM9+gIftTiOzlFvqZjomcCotfPsPEnPK5g7aVkod1A8RKBDYLqCeTMYdfegaDpWlF0IfBCYsmCUjDVOoIaAb1PXyMEUBKYUUDBPYh31cevJaTxNYEqBaT8ivaU1uhx8TWbK14CLOlFg6oJRMieuHIcm0CCgYBqQ7m3ibuaeiscI/F9g+oJ5u9zRH5U+EioaLykCjwWWKJizS+adV9k8XmieWVNgmYK5qmSUzZovJFd9X2Cpgrm6ZO6Ru8u5p+KxWQWWK5gKJTPrYpr9urw57E94yYJRMvsXij3+FVAy+1bCsj/Ja6HsWyi2JtAjsOwdzDvWmd/C7gnEPvUFvDm1Z7TsHcw7kcXSvlhsSWCvwPJ3MB/B3M3sXT5rbu9NqT335e9gPlJZOO0Lx5YEWgTcwWwouaPZwFn4KW9E7eG7g9mwspA2cDxFoEHAHUwD0tsm7mYaoRbYzBtPe8gKpt3q55aKZifYZJsrl32BKph9Xp+2VjifSKZ9QLnsj1bB7Dd7uIeyeUgT/4RyiY/QBRAgQIAAAQIECBAgQIAAAQIECBAgQIAAAQIECBAgQIAAAQIECBAgQIAAAQIECBAgQIAAAQIECBAgQIAAAQIECBAgQIAAAQIECBAgQIAAAQIECBAgQIAAAQIECBAgQIAAAQIECBAgQIAAAQIECBAgQIAAAQIECBAgQIAAAQIECBAgQIAAAQIECBAgQIAAAQIECBAgQIAAAQIECBAgQIAAAQIECBAgQIAAAQIECBAgQIAAAQIECBAgQIAAAQIECBAgQIAAAQIECBAgQIAAAQIECBAgQIAAAQIECBAgQIAAAQIECBAgQIAAAQIECBAgQIAAAQIECBAgQIAAAQIECFwk8Dde+y32TTwODAAAAABJRU5ErkJggg==;" parent="1" vertex="1">
          <mxGeometry x="-425" y="242.5" width="70" height="70" as="geometry" />
        </mxCell>
      </root>
    </mxGraphModel>
  </diagram>
</mxfile>
